<?xml version="1.0"?>
<svg xmlns="http://www.w3.org/2000/svg" xmlns:xlink="http://www.w3.org/1999/xlink" xmlns:svgjs="http://svgjs.com/svgjs" version="1.1" width="512" height="512" x="0" y="0" viewBox="0 0 512 512" style="enable-background:new 0 0 512 512" xml:space="preserve" class=""><g><g xmlns="http://www.w3.org/2000/svg"><path d="m495.484 0h-181.678c-4.561 0-8.258 3.697-8.258 8.258v16.516c0 4.56-3.694 8.258-8.258 8.258s-8.258-3.698-8.258-8.258v-16.516c0-4.561-3.697-8.258-8.258-8.258h-8.258c-4.561 0-8.258 3.697-8.258 8.258v16.516c0 4.56-3.694 8.258-8.258 8.258s-8.258-3.698-8.258-8.258v-16.516c0-4.561-3.697-8.258-8.258-8.258h-8.258c-4.561 0-8.258 3.697-8.258 8.258v16.516c0 4.56-3.694 8.258-8.258 8.258-4.565 0-8.258-3.698-8.258-8.258v-16.516c0-4.561-3.697-8.258-8.258-8.258h-181.678l-6.516 16.516v470.71c0 9.122 7.395 16.516 16.516 16.516h171.677c4.561 0 8.258-3.697 8.258-8.258v-8.258c0-4.56 3.694-8.258 8.258-8.258 4.565 0 8.258 3.698 8.258 8.258v8.258c0 4.561 3.697 8.258 8.258 8.258h8.258c4.561 0 8.258-3.697 8.258-8.258v-8.258c0-4.56 3.694-8.258 8.258-8.258s8.258 3.698 8.258 8.258v8.258c0 4.561 3.697 8.258 8.258 8.258h8.258c4.561 0 8.258-3.697 8.258-8.258v-8.258c0-4.56 3.694-8.258 8.258-8.258s8.258 3.698 8.258 8.258v8.258c0 4.561 3.697 8.258 8.258 8.258h181.677l16.518-8.258v-478.968c0-9.121-7.395-16.516-16.516-16.516z" fill="#0d1431" data-original="#b3e59f" style="" class=""/><path d="m156.907 33.032h-74.326c-27.365 0-49.548 22.183-49.548 49.548v346.839c0 27.365 22.183 49.548 49.548 49.548h74.327c18.241 0 33.028-14.787 33.028-33.029v-.001-379.877c-.001-18.24-14.788-33.028-33.029-33.028z" fill="#c8c5c9" data-original="#c8c5c9" style="" class=""/><path d="m355.091 33.032h74.323c27.364 0 49.546 22.183 49.546 49.548v346.839c0 27.365-22.182 49.548-49.546 49.548h-74.323c-18.24 0-33.027-14.787-33.027-33.029v-.001-379.877c.001-18.24 14.787-33.028 33.027-33.028z" fill="#c8c5c9" data-original="#c8c5c9" style="" class=""/><path d="m429.419 439.667h-336.419c-9.122 0-16.516-7.395-16.516-16.516v-340.57l6.097-16.516h346.839c9.122 0 16.516 7.395 16.516 16.516v346.839z" fill="#eceaec" data-original="#eceaec" style=""/><path d="m170.726 310.101c-29.944 0-54.306-24.363-54.306-54.31s24.363-54.31 54.306-54.31c10.879 0 21.379 3.21 30.371 9.282 3.782 2.552 4.774 7.685 2.226 11.464-2.556 3.782-7.685 4.786-11.468 2.222-6.25-4.222-13.556-6.452-21.129-6.452-20.839 0-37.79 16.956-37.79 37.794s16.952 37.794 37.79 37.794c7.871 0 14.524-2.375 19.782-7.052 1.032-.919 2-1.919 2.887-2.988 2.927-3.492 8.121-3.976 11.637-1.036 3.5 2.927 3.96 8.133 1.04 11.633-1.419 1.69-2.952 3.27-4.581 4.722-8.249 7.35-18.894 11.237-30.765 11.237z" fill="#0d1431" data-original="#95d6a4" style="" class=""/><path d="m258.637 201.48h-25.645c-2.194 0-4.298.875-5.847 2.427-1.548 1.556-2.419 3.661-2.411 5.859v92.077c0 4.56 3.694 8.258 8.258 8.258 4.565 0 8.258-3.698 8.258-8.258v-31.793c5.846-.032 13.377-.07 17.387-.07 19.169 0 34.758-15.363 34.758-34.25s-15.589-34.25-34.758-34.25zm0 51.984c-3.968 0-11.419.036-17.258.069-.032-5.992-.089-29.282-.105-35.536h17.363c9.887 0 18.242 8.121 18.242 17.734 0 9.612-8.355 17.733-18.242 17.733z" fill="#0d1431" data-original="#95d6a4" style="" class=""/><path d="m352.895 310.75h-1.847c-22.629 0-40.355-17.085-40.355-38.891v-62.766c0-4.56 3.694-8.258 8.258-8.258 4.565 0 8.258 3.698 8.258 8.258v62.766c0 12.754 10.25 22.375 23.839 22.375h1.847c13.589 0 23.839-9.621 23.839-22.375v-62.766c0-4.56 3.694-8.258 8.258-8.258s8.258 3.698 8.258 8.258v62.766c0 21.806-17.726 38.891-40.355 38.891z" fill="#0d1431" data-original="#95d6a4" style="" class=""/><path d="m388.129 181.677h-264.258c-4.565 0-8.258-3.698-8.258-8.258s3.694-8.258 8.258-8.258h264.258c4.565 0 8.258 3.698 8.258 8.258s-3.693 8.258-8.258 8.258z" fill="#0d1431" data-original="#b3e59f" style="" class=""/><path d="m388.129 346.839h-264.258c-4.565 0-8.258-3.698-8.258-8.258s3.694-8.258 8.258-8.258h264.258c4.565 0 8.258 3.698 8.258 8.258s-3.693 8.258-8.258 8.258z" fill="#0d1431" data-original="#b3e59f" style="" class=""/><g fill="#95d6a4"><path d="m305.548 495.484v8.258c0 4.561 3.697 8.258 8.258 8.258h181.677c9.121 0 16.516-7.395 16.516-16.516z" fill="#0d1431" data-original="#95d6a4" style="" class=""/><path d="m222.968 495.484v8.258c0 4.561 3.697 8.258 8.258 8.258h8.258c4.561 0 8.258-3.697 8.258-8.258v-8.258z" fill="#0d1431" data-original="#95d6a4" style="" class=""/><path d="m82.581 495.484c-36.486 0-66.065-29.578-66.065-66.065v-429.419c-9.121 0-16.516 7.394-16.516 16.516v478.968c0 9.121 7.395 16.516 16.516 16.516h181.677c4.561 0 8.258-3.697 8.258-8.258v-8.258z" fill="#0d1431" data-original="#95d6a4" style="" class=""/><path d="m264.258 495.484v8.258c0 4.561 3.697 8.258 8.258 8.258h8.258c4.561 0 8.258-3.697 8.258-8.258v-8.258z" fill="#0d1431" data-original="#95d6a4" style="" class=""/></g><path d="m82.581 379.871v-313.806c-9.121 0-16.516 7.394-16.516 16.516v346.839c0 9.122 7.395 16.516 16.516 16.516h346.839c9.121 0 16.516-7.395 16.516-16.516h-313.807c-27.365-.001-49.548-22.184-49.548-49.549z" fill="#dad8db" data-original="#dad8db" style=""/></g></g></svg>
