<?xml version="1.0"?>
<svg xmlns="http://www.w3.org/2000/svg" xmlns:xlink="http://www.w3.org/1999/xlink" xmlns:svgjs="http://svgjs.com/svgjs" version="1.1" width="512" height="512" x="0" y="0" viewBox="0 0 506.503 506.503" style="enable-background:new 0 0 512 512" xml:space="preserve" class=""><g><g xmlns="http://www.w3.org/2000/svg"><path d="m54.364 64.605h268.596v268.596h-268.596z" fill="#e8edf2" data-original="#e8edf2" style="" class=""/><path d="m54.362 64.6h30v268.6h-30z" fill="#d9e7ec" data-original="#d9e7ec" style="" class=""/><path d="m345.672 20v59.56c0 11.05-8.96 20-20 20h-274.02c-11.04 0-20-8.95-20-20v-59.56c0-11.05 8.96-20 20-20h274.02c11.04 0 20 8.95 20 20z" fill="#f5f8f9" data-original="#f5f8f9" style="" class=""/><path d="m345.672 155.3v59.57c0 11.04-8.96 20-20 20h-274.02c-11.04 0-20-8.96-20-20v-59.57c0-11.04 8.96-20 20-20h274.02c11.04 0 20 8.96 20 20z" fill="#f5f8f9" data-original="#f5f8f9" style="" class=""/><path d="m167.217 350.773h42.89v70.462h-42.89z" fill="#685e68" data-original="#685e68" style="" class=""/><path d="m345.672 290.61v59.57c0 11.04-8.96 20-20 20h-274.02c-11.04 0-20-8.96-20-20v-59.57c0-11.05 8.96-20 20-20h274.02c11.04 0 20 8.95 20 20z" fill="#f5f8f9" data-original="#f5f8f9" style="" class=""/><path d="m102.633 75.5h-25.031c-3.927 0-7.11-3.183-7.11-7.11v-35.179c0-3.927 3.183-7.11 7.11-7.11h25.031c3.927 0 7.11 3.183 7.11 7.11v35.179c.001 3.927-3.183 7.11-7.11 7.11z" fill="#ff4757" data-original="#ac80dd" style="" class=""/><path d="m102.633 346.114h-25.031c-3.927 0-7.11-3.183-7.11-7.11v-35.179c0-3.927 3.183-7.11 7.11-7.11h25.031c3.927 0 7.11 3.183 7.11 7.11v35.179c.001 3.926-3.183 7.11-7.11 7.11z" fill="#ff4757" data-original="#ac80dd" style="" class=""/><path d="m102.633 210.807h-25.031c-3.927 0-7.11-3.183-7.11-7.11v-35.179c0-3.927 3.183-7.11 7.11-7.11h25.031c3.927 0 7.11 3.183 7.11 7.11v35.179c.001 3.927-3.183 7.11-7.11 7.11z" fill="#ff4757" data-original="#ac80dd" style="" class=""/><path d="m505.484 469.806v.89c0 11.598-9.402 21-21 21h-462.464c-11.598 0-21-9.402-21-21v-.89c0-11.598 9.402-21 21-21h462.464c11.598 0 21 9.402 21 21z" fill="#685e68" data-original="#685e68" style="" class=""/><path d="m241.253 439.209v63.487c0 2.103-1.812 3.808-4.047 3.808h-97.088c-2.235 0-4.047-1.705-4.047-3.808v-63.487c0-2.103 1.812-3.808 4.047-3.808h13.862c2.235 0 4.047-1.705 4.047-3.808v-26.975c0-2.103 1.812-3.808 4.047-3.808h53.178c2.235 0 4.047 1.705 4.047 3.808v26.975c0 2.103 1.812 3.808 4.047 3.808h13.862c2.233 0 4.045 1.705 4.045 3.808z" fill="#fe646f" data-original="#9d66d5" style="" class=""/><path d="m192.706 400.811c-2.236 0-4.044 1.705-4.044 3.809v26.969c0 2.104-1.808 3.809-4.044 3.809h-13.868c-2.236 0-4.044 1.705-4.044 3.809v63.487c0 2.104 1.808 3.809 4.044 3.809h-30.635c-2.236 0-4.044-1.705-4.044-3.809v-63.487c0-2.104 1.808-3.809 4.044-3.809h13.868c2.236 0 4.044-1.705 4.044-3.809v-26.969c0-2.104 1.808-3.809 4.044-3.809z" fill="#ff4757" data-original="#8659b9" style="" class=""/><g fill="#e8edf2"><path d="m80.712 99.56h-29.06c-11.04 0-20-8.95-20-20v-59.56c0-11.05 8.96-20 20-20h29.06c-11.28 0-20.42 9.14-20.42 20.42v58.72c0 11.28 9.14 20.42 20.42 20.42z" fill="#e8edf2" data-original="#e8edf2" style="" class=""/><path d="m80.712 234.87h-29.06c-11.04 0-20-8.96-20-20v-59.57c0-11.04 8.96-20 20-20h29.06c-11.28 0-20.42 9.14-20.42 20.43v58.72c0 11.28 9.14 20.42 20.42 20.42z" fill="#e8edf2" data-original="#e8edf2" style="" class=""/><path d="m80.712 370.18h-29.06c-11.04 0-20-8.96-20-20v-59.57c0-11.05 8.96-20 20-20h29.06c-11.28 0-20.42 9.14-20.42 20.42v58.72c0 11.29 9.14 20.43 20.42 20.43z" fill="#e8edf2" data-original="#e8edf2" style="" class=""/></g><path d="m458.685 254.735h-32.845v-46.53c0-9.5-3.702-18.439-10.425-25.168-6.718-6.711-15.656-10.413-25.156-10.413-19.62 0-35.582 15.962-35.582 35.582v46.53h-32.845v-46.53c0-37.73 30.696-68.426 68.426-68.426 18.267 0 35.448 7.114 48.381 20.033 12.931 12.945 20.045 30.127 20.045 48.393v46.529z" fill="#685e68" data-original="#685e68" style="" class=""/><path d="m405.621 141.502c-30.411 6.954-53.153 34.22-53.153 66.704v46.525h-30.635v-46.525c0-37.733 30.697-68.43 68.429-68.43 5.229 0 10.376.582 15.359 1.726z" fill="#554e56" data-original="#554e56" style="" class=""/><path d="m475.112 258.59v126.96c0 8.77-7.12 15.89-15.9 15.89h-137.91c-8.78 0-15.89-7.12-15.89-15.89v-126.96c0-8.78 7.11-15.9 15.89-15.9h137.91c8.78 0 15.9 7.12 15.9 15.9z" fill="#fe646f" data-original="#fe646f" style="" class=""/><path d="m407.316 362.421h-34.115c-1.894 0-3.372-1.653-3.153-3.536l5.044-44.893c.164-1.456-.194-2.907-.936-4.169-2.006-3.41-2.957-7.504-2.411-11.849 1.062-8.446 7.935-15.214 16.396-16.145 11.263-1.24 20.785 7.55 20.785 18.561 0 3.437-.932 6.656-2.558 9.425-.744 1.267-1.105 2.72-.941 4.18l5.043 44.891c.218 1.882-1.26 3.535-3.154 3.535z" fill="#554e56" data-original="#554e56" style="" class=""/><path d="m351.272 401.44h-29.97c-8.78 0-15.89-7.12-15.89-15.89v-126.96c0-8.78 7.11-15.9 15.89-15.9h29.97c-8.96 0-16.22 7.27-16.22 16.23v126.29c0 8.96 7.26 16.23 16.22 16.23z" fill="#ff4757" data-original="#fd4755" style="" class=""/></g></g></svg>
