<?xml version="1.0"?>
<svg xmlns="http://www.w3.org/2000/svg" xmlns:xlink="http://www.w3.org/1999/xlink" xmlns:svgjs="http://svgjs.com/svgjs" version="1.1" width="512" height="512" x="0" y="0" viewBox="0 0 497.499 497.499" style="enable-background:new 0 0 512 512" xml:space="preserve" class=""><g>
<g xmlns="http://www.w3.org/2000/svg">
	<path style="" d="M201.962,306.04c-84.375,0-153.02-68.645-153.02-153.02S117.587,0,201.962,0   c84.376,0,153.021,68.645,153.021,153.02S286.338,306.04,201.962,306.04z M201.962,15c-76.104,0-138.02,61.916-138.02,138.02   s61.915,138.02,138.02,138.02s138.021-61.916,138.021-138.02S278.066,15,201.962,15z" fill="#ebf6ff" data-original="#ebf6ff" class=""/>
	<path style="" d="M201.962,254.84c-56.144,0-101.82-45.676-101.82-101.82c0-56.144,45.677-101.82,101.82-101.82   s101.82,45.676,101.82,101.82C303.782,209.164,258.105,254.84,201.962,254.84z M201.962,66.2c-47.873,0-86.82,38.947-86.82,86.82   c0,47.873,38.947,86.82,86.82,86.82s86.82-38.947,86.82-86.82C288.782,105.147,249.835,66.2,201.962,66.2z" fill="#a0bfdb" data-original="#a0bfdb" class=""/>
	<path style="" d="M433.964,314.63l-82.62,13.66l66.36,114.95c6.4,11.08,2.6,25.26-8.48,31.66l-30.18,17.42l-3.59,2.07   c-11.08,6.4-25.25,2.6-31.65-8.48l-66.37-114.95l-22.95,27.95l-30.19,36.77c-10.16,12.38-30.23,5.65-30.88-10.35l-10.8-263.94   c-0.75-18.2,19.25-29.75,34.64-20.01l223.19,141.33C453.964,291.28,449.754,312.02,433.964,314.63z" fill="#ff985a" data-original="#b2c9d8" class=""/>
	<path style="" d="M306.374,335.73L306.374,335.73l-112.49-194.82c-6.83,3.94-11.64,11.38-11.27,20.48l10.8,263.94   c0.65,16,20.72,22.73,30.88,10.35l53.14-64.71l0.003-0.004l66.367,114.944c6.4,11.08,20.57,14.88,31.65,8.48l3.59-2.07   l-74.88-129.69C299.227,354.078,300.107,343.361,306.374,335.73z" fill="#ff843c" data-original="#789ebc" class=""/>
</g>















</g></svg>
