<?xml version="1.0"?>
<svg xmlns="http://www.w3.org/2000/svg" xmlns:xlink="http://www.w3.org/1999/xlink" xmlns:svgjs="http://svgjs.com/svgjs" version="1.1" width="512" height="512" x="0" y="0" viewBox="0 0 512 512" style="enable-background:new 0 0 512 512" xml:space="preserve" class=""><g><g xmlns="http://www.w3.org/2000/svg"><circle cx="227.617" cy="284.383" fill="#e94444" r="227.617" data-original="#e94444" style="" class=""/><ellipse cx="227.617" cy="284.384" fill="#d2e9ff" rx="155.037" ry="155.037" transform="matrix(.707 -.707 .707 .707 -134.422 244.243)" data-original="#d2e9ff" style="" class=""/><ellipse cx="227.617" cy="284.384" fill="#e94444" rx="82.458" ry="82.458" transform="matrix(.924 -.383 .383 .924 -91.503 108.753)" data-original="#e94444" style="" class=""/><path d="m227.617 314.999c-16.881 0-30.615-13.734-30.615-30.615s13.734-30.615 30.615-30.615c16.882 0 30.616 13.734 30.616 30.615s-13.734 30.615-30.616 30.615z" fill="#d2e9ff" data-original="#d2e9ff" style="" class=""/><path d="m227.617 56.767c-5.934 0-11.815.228-17.635.674 117.468 9.001 209.982 107.167 209.982 226.943 0 119.775-92.514 217.941-209.982 226.942 5.82.446 11.7.674 17.635.674 125.709 0 227.617-101.908 227.617-227.617s-101.908-227.616-227.617-227.616z" fill="#d83131" data-original="#d83131" style=""/><path d="m478.167 33.833-59.485 59.485-7.386-43.901 48.2-48.2c2.127-2.127 5.739-1.354 6.809 1.457z" fill="#0078c8" data-original="#0078c8" style="" class=""/><path d="m478.167 33.833-59.485 59.485 43.901 7.386 48.2-48.2c2.127-2.127 1.354-5.739-1.457-6.809z" fill="#5f99d7" data-original="#5f99d7" style="" class=""/><path d="m509.327 45.695-31.16-11.862-6.483 6.483 14.13 5.379c2.811 1.07 3.584 4.682 1.457 6.809l-44.814 44.814 20.127 3.386 48.2-48.2c2.127-2.127 1.353-5.739-1.457-6.809z" fill="#3c87d0" data-original="#3c87d0" style="" class=""/><g><path d="m227.617 292.16c-1.99 0-3.98-.759-5.499-2.277-3.037-3.038-3.037-7.961 0-10.998l270.851-270.852c3.038-3.036 7.961-3.036 10.998 0 3.037 3.038 3.037 7.961 0 10.998l-270.851 270.852c-1.519 1.518-3.51 2.277-5.499 2.277z" fill="#384949" data-original="#384949" style="" class=""/></g></g></g></svg>
