<svg xmlns="http://www.w3.org/2000/svg" xmlns:xlink="http://www.w3.org/1999/xlink" xmlns:lucid="lucid" width="1919" height="981"><g transform="translate(-2173 -137)" lucid:page-tab-id="0_0"><path d="M0 0h5483.2v1323.2H0z" fill="#fff"/><path d="M2680 371.37h240v60h-240z" fill="none"/><use xlink:href="#a" transform="matrix(1,0,0,1,2680,371.36666666666673) translate(82.81358024691357 21.91111111111111)"/><use xlink:href="#b" transform="matrix(1,0,0,1,2680,371.36666666666673) translate(6.137654320987679 46.17777777777778)"/><use xlink:href="#c" transform="matrix(1,0,0,1,2680,371.36666666666673) translate(49.89629629629632 46.17777777777778)"/><use xlink:href="#d" transform="matrix(1,0,0,1,2680,371.36666666666673) translate(77.98271604938273 46.17777777777778)"/><use xlink:href="#e" transform="matrix(1,0,0,1,2680,371.36666666666673) translate(149.7716049382716 46.17777777777778)"/><use xlink:href="#f" transform="matrix(1,0,0,1,2680,371.36666666666673) translate(184.54259259259257 46.17777777777778)"/><path d="M3744.8 1019.62c2.3 1.2 7.28 2.6 11.87 2.6 11.5 0 16.08-5.7 16.08-11.92 0-5.52-3.06-8.97-10.34-11.3-4.58-1.47-6.88-2.16-6.88-4.14 0-1.56 1.92-2.5 4.6-2.5 3.44 0 6.12.6 9.2 1.9l2.28-8.12c-3.83-1.55-7.27-2.15-11.1-2.07-9.2 0-15.3 4.92-15.3 11.56 0 6.4 4.96 9.67 11.1 11.4 4.58 1.2 6.1 2.24 6.1 3.88 0 1.82-1.52 2.94-4.96 2.94-3.83-.1-6.9-.86-10.34-2.6zm35.22 1.9h9.96v-11.05l3.44-4.14 8.8 15.2h11.88l-13.4-21.32 12.63-15.44h-12.63l-8.04 11.65c-.77 1.22-1.53 2.5-2.3 3.8h-.38v-15.44h-9.96v36.76zm39.05 0h9.96v-13.72h1.9c3.46 0 5 .86 6.14 5.35 1.15 4.74 1.9 7.25 2.68 8.37h10.33c-.76-1.38-1.9-6.82-3.44-10.6-.77-3.03-2.3-5.45-4.6-6.5v-.16c2.68-.86 6.5-3.97 6.5-8.88 0-3.7-1.52-6.4-3.82-8.03-2.68-2.07-6.9-2.93-13-2.93-4.22 0-8.05.17-12.65.86v36.24zm9.96-29.34c1.53-.26 2.68-.26 3.83-.26 3.44 0 5.74 1.47 5.74 4.23 0 2.76-2.68 4.4-6.5 4.4h-3.07v-8.37z" stroke="#000" stroke-opacity="0" stroke-width=".93" fill="#0d1431"/><path d="M3878.03 1012.55l2.68 8.97h11.1l-12.24-36.76h-13.78l-11.1 36.76H3865l2.3-8.97h10.73zm-9.2-7.5l1.93-6.48c.38-2.07 1.15-4.75 1.53-6.9.75 2.15 1.52 4.83 2.3 6.9l1.9 6.47h-7.66zm29.5 16.47h9.94v-12.25c.77 0 1.54.17 2.68.17 5.75 0 9.96-1.3 13.02-4.06 2.3-2.07 3.45-5.43 3.45-8.97.38-3.7-1.15-6.9-4.2-9.05-2.7-1.8-6.14-2.93-11.5-2.93-4.98-.1-8.8.17-13.4.77v36.32zm9.94-29.25c1.15-.17 2.3-.26 3.45-.17 3.83 0 5.74 1.72 5.74 4.4 0 3.28-2.68 5.1-6.5 5.1-.77 0-1.54 0-2.7-.18v-9.15z" stroke="#000" stroke-opacity="0" stroke-width=".93" fill="#ff4757"/><path d="M3933.92 1004.52v6.56h15.7v-6.56h-15.7z" stroke="#000" stroke-opacity="0" stroke-width=".93" fill="#0d1431"/><path d="M3956.9 984.76v36.76h9.95v-36.76h-9.96z" stroke="#000" stroke-opacity="0" stroke-width=".93" fill="#ff4757"/><path d="M3982.54 1021.52h9.96v-28.4h10.33v-8.36h-30.62v8.37h10.34v28.4z" stroke="#000" stroke-opacity="0" stroke-width=".93" fill="#0d1431"/><path d="M3647.56 987.96h29.48v30.2h-29.48v-30.2z" stroke="#000" stroke-opacity="0" stroke-width=".93" fill="#fff"/><path d="M3631.5 971.65h4.58v62.8h-4.6v-62.8z" stroke="#000" stroke-opacity="0" stroke-width=".93" fill="#ff4757"/><path d="M3631.5 1029.63h61.24v4.83h-61.25v-4.83zM3620 983.55h11.5v4.75H3620v-4.75zM3624.6 1000.72h6.9v4.92h-6.9v-4.92zM3620 1017.98h11.5v4.92H3620v-4.92z" stroke="#000" stroke-opacity="0" stroke-width=".93" fill="#ff4757"/><path d="M3642.6 1034.37h4.96v11.74h-4.97v-11.73zM3659.8 1034.46h4.6v7.08h-4.6v-7.08zM3676.66 1034.46h4.98v11.82h-4.98v-11.82zM3631.5 971.65h20.66v4.74h-20.67v-4.75z" stroke="#000" stroke-opacity="0" stroke-width=".93" fill="#ff4757"/><path d="M3647.18 960h4.98v16.4h-4.98V960z" stroke="#000" stroke-opacity="0" stroke-width=".93" fill="#ff4757"/><path d="M3658.67 964.75h4.97v11.64h-4.97v-11.65z" stroke="#000" stroke-opacity="0" stroke-width=".93" fill="#0d1431"/><path d="M3658.67 971.65h34.07v4.74h-34.07v-4.75z" stroke="#000" stroke-opacity="0" stroke-width=".93" fill="#0d1431"/><path d="M3688.14 976.22h4.6v46.68h-4.6v-46.68zM3692.74 983.55h11.48v4.75h-11.48v-4.75zM3692.74 1000.72h6.9v4.92h-6.9v-4.92zM3692.74 1017.98h11.48v4.92h-11.48v-4.92zM3672.07 960h4.97v16.4h-4.97V960zM3677.04 983.2h4.6v39.7h-4.6v-39.7z" stroke="#000" stroke-opacity="0" stroke-width=".93" fill="#0d1431"/><path d="M3642.6 983.2h39.04v4.76h-39.05v-4.75z" stroke="#000" stroke-opacity="0" stroke-width=".93" fill="#0d1431"/><path d="M3642.6 983.3l4.96 4.66v34.94h-4.97v-39.6z" stroke="#000" stroke-opacity="0" stroke-width=".93" fill="#ff4757"/><path d="M3681.64 1022.9l-4.6-4.75h-34.45v4.75h39.04z" stroke="#000" stroke-opacity="0" stroke-width=".93" fill="#ff4757"/><path d="M2463.6 454.37c28.1 0 50.9 22.16 50.9 49.5 0 27.33-22.8 49.5-50.9 49.5h-152.7c-28.1 0-50.9-22.17-50.9-49.5 0-27.34 22.8-49.5 50.9-49.5z" stroke="#000" stroke-opacity="0" stroke-width="2" fill="#ff843c"/><use xlink:href="#g" transform="matrix(1,0,0,1,2265,459.3667066833874) translate(75.65185185185186 49.55277777777778)"/><path d="M2800 443.87l80 60-80 60-80-60z" stroke="#000" stroke-opacity="0" stroke-width="2" fill="#0d1431"/><use xlink:href="#h" transform="matrix(1,0,0,1,2725,448.86666666666673) translate(58.74296296296297 57.42777777777778)"/><path d="M2515.5 503.87h186" stroke="#000" stroke-width="2" fill="none"/><path d="M2515.53 504.87h-1.08l.05-1-.05-1h1.08z"/><path d="M2716.76 503.87l-14.26 4.63v-9.27z" stroke="#000" stroke-width="2"/><path d="M3080 473.87h160v60h-160z" stroke="#000" stroke-opacity="0" stroke-width="2" fill="#ff4757"/><use xlink:href="#i" transform="matrix(1,0,0,1,3085,478.86666666666673) translate(53.71049382716049 28.677777777777777)"/><path d="M3080 698.37h160v60h-160z" stroke="#000" stroke-opacity="0" stroke-width="2" fill="#ccc"/><use xlink:href="#j" transform="matrix(1,0,0,1,3085,703.3670268171518) translate(53.21018518518519 21.080555555555552)"/><use xlink:href="#k" transform="matrix(1,0,0,1,3085,703.3670268171518) translate(49.550000000000004 44.45833333333333)"/><path d="M3061.5 503.87H2881" stroke="#000" stroke-width="2" fill="none"/><path d="M3076.76 503.87l-14.26 4.63v-9.27z" stroke="#000" stroke-width="2"/><path d="M2881.03 504.87h-2.36l1.33-1-1.33-1h2.36z"/><path d="M3061.5 728.37H2980v-224.5h-99" stroke="#000" stroke-width="2" fill="none"/><path d="M3076.76 728.37L3062.5 733v-9.27z" stroke="#000" stroke-width="2"/><path d="M2881.03 504.87h-2.36l1.33-1-1.33-1h2.36z"/><path d="M3280 431.37h140v152.38h-140z" fill="none"/><path d="M3420 583.75c-5.26 0-9.52-4.26-9.52-9.52v-57.15c0-5.26-4.27-9.52-9.53-9.52 5.26 0 9.53-4.27 9.53-9.53V440.9c0-5.27 4.26-9.53 9.52-9.53" stroke="#000" stroke-width="2" fill="none"/><use xlink:href="#l" transform="matrix(1,0,0,1,3285,436.36666666666673) translate(7.213271604938278 75.54444444444445)"/><path d="M3420 431.37h200v43.75h-200z" stroke="#000" stroke-opacity="0" stroke-width="2" fill="#fff" fill-opacity="0"/><use xlink:href="#m" transform="matrix(1,0,0,1,3425,436.36666666666673) translate(0 16)"/><use xlink:href="#n" transform="matrix(1,0,0,1,3425,436.36666666666673) translate(36.01 36.44444444444444)"/><use xlink:href="#o" transform="matrix(1,0,0,1,3425,436.36666666666673) translate(56.75074074074074 36.44444444444444)"/><use xlink:href="#p" transform="matrix(1,0,0,1,3425,436.36666666666673) translate(65.39271604938271 36.44444444444444)"/><path d="M3420 540h200v43.75h-200z" stroke="#000" stroke-opacity="0" stroke-width="2" fill="#fff" fill-opacity="0"/><use xlink:href="#q" transform="matrix(1,0,0,1,3425,545) translate(0 16)"/><use xlink:href="#n" transform="matrix(1,0,0,1,3425,545) translate(36.01 36.44444444444444)"/><use xlink:href="#o" transform="matrix(1,0,0,1,3425,545) translate(56.75074074074074 36.44444444444444)"/><use xlink:href="#r" transform="matrix(1,0,0,1,3425,545) translate(65.39271604938271 36.44444444444444)"/><use xlink:href="#s" transform="matrix(1,0,0,1,3425,545) translate(176.78777777777776 36.44444444444444)"/><path d="M3720 260h280v163.87h-280z" fill="#fff" fill-opacity="0"/><path d="M3748 260h-28v163.87h28" stroke="#000" stroke-width="2" fill="none"/><use xlink:href="#t" transform="matrix(1,0,0,1,3742.5,265) translate(0 14.2888888888889)"/><use xlink:href="#u" transform="matrix(1,0,0,1,3742.5,265) translate(58.17283950617285 14.2888888888889)"/><use xlink:href="#v" transform="matrix(1,0,0,1,3742.5,265) translate(80.79012345679013 14.2888888888889)"/><use xlink:href="#w" transform="matrix(1,0,0,1,3742.5,265) translate(132.14814814814815 14.2888888888889)"/><use xlink:href="#x" transform="matrix(1,0,0,1,3742.5,265) translate(157.77777777777777 14.2888888888889)"/><use xlink:href="#y" transform="matrix(1,0,0,1,3742.5,265) translate(172.59259259259258 14.2888888888889)"/><use xlink:href="#z" transform="matrix(1,0,0,1,3742.5,265) translate(0 34.02222222222223)"/><use xlink:href="#A" transform="matrix(1,0,0,1,3742.5,265) translate(0 52.95555555555556)"/><use xlink:href="#B" transform="matrix(1,0,0,1,3742.5,265) translate(9.598148148148146 52.95555555555556)"/><use xlink:href="#A" transform="matrix(1,0,0,1,3742.5,265) translate(0 71.88888888888889)"/><use xlink:href="#C" transform="matrix(1,0,0,1,3742.5,265) translate(9.598148148148146 71.88888888888889)"/><use xlink:href="#A" transform="matrix(1,0,0,1,3742.5,265) translate(0 90.82222222222222)"/><use xlink:href="#D" transform="matrix(1,0,0,1,3742.5,265) translate(9.598148148148146 90.82222222222222)"/><use xlink:href="#A" transform="matrix(1,0,0,1,3742.5,265) translate(0 109.75555555555556)"/><use xlink:href="#E" transform="matrix(1,0,0,1,3742.5,265) translate(9.598148148148146 109.75555555555556)"/><use xlink:href="#A" transform="matrix(1,0,0,1,3742.5,265) translate(0 128.6888888888889)"/><use xlink:href="#F" transform="matrix(1,0,0,1,3742.5,265) translate(9.598148148148146 128.6888888888889)"/><use xlink:href="#G" transform="matrix(1,0,0,1,3742.5,265) translate(56.88765432098764 128.6888888888889)"/><use xlink:href="#H" transform="matrix(1,0,0,1,3742.5,265) translate(0 147.6222222222222)"/><path d="M3621 453.24h48.5v-111.3h31" stroke="#000" stroke-width="2" fill="none"/><path d="M3621.03 454.24H3620v-2h1.03z"/><path d="M3715.76 341.93l-14.26 4.64v-9.27z" stroke="#000" stroke-width="2"/><path d="M3720 578.4h280v185.2h-280z" fill="#fff" fill-opacity="0"/><path d="M3748 578.4h-28v185.2h28" stroke="#000" stroke-width="2" fill="none"/><g><use xlink:href="#t" transform="matrix(1,0,0,1,3742.5,583.4) translate(0 14.622222222222215)"/><use xlink:href="#u" transform="matrix(1,0,0,1,3742.5,583.4) translate(58.17283950617285 14.622222222222215)"/><use xlink:href="#v" transform="matrix(1,0,0,1,3742.5,583.4) translate(80.79012345679013 14.622222222222215)"/><use xlink:href="#w" transform="matrix(1,0,0,1,3742.5,583.4) translate(132.14814814814815 14.622222222222215)"/><use xlink:href="#I" transform="matrix(1,0,0,1,3742.5,583.4) translate(157.77777777777777 14.622222222222215)"/><use xlink:href="#J" transform="matrix(1,0,0,1,3742.5,583.4) translate(182.46913580246914 14.622222222222215)"/><use xlink:href="#K" transform="matrix(1,0,0,1,3742.5,583.4) translate(0 35.95555555555555)"/><use xlink:href="#L" transform="matrix(1,0,0,1,3742.5,583.4) translate(21.62962962962963 35.95555555555555)"/><use xlink:href="#M" transform="matrix(1,0,0,1,3742.5,583.4) translate(53.135802469135804 35.95555555555555)"/><use xlink:href="#N" transform="matrix(1,0,0,1,3742.5,583.4) translate(129.08641975308643 35.95555555555555)"/><use xlink:href="#z" transform="matrix(1,0,0,1,3742.5,583.4) translate(0 55.68888888888888)"/><use xlink:href="#A" transform="matrix(1,0,0,1,3742.5,583.4) translate(0 74.6222222222222)"/><use xlink:href="#B" transform="matrix(1,0,0,1,3742.5,583.4) translate(9.598148148148146 74.6222222222222)"/><use xlink:href="#A" transform="matrix(1,0,0,1,3742.5,583.4) translate(0 93.55555555555554)"/><use xlink:href="#C" transform="matrix(1,0,0,1,3742.5,583.4) translate(9.598148148148146 93.55555555555554)"/><use xlink:href="#A" transform="matrix(1,0,0,1,3742.5,583.4) translate(0 112.48888888888888)"/><use xlink:href="#D" transform="matrix(1,0,0,1,3742.5,583.4) translate(9.598148148148146 112.48888888888888)"/><use xlink:href="#A" transform="matrix(1,0,0,1,3742.5,583.4) translate(0 131.42222222222222)"/><use xlink:href="#E" transform="matrix(1,0,0,1,3742.5,583.4) translate(9.598148148148146 131.42222222222222)"/><use xlink:href="#A" transform="matrix(1,0,0,1,3742.5,583.4) translate(0 150.35555555555555)"/><use xlink:href="#F" transform="matrix(1,0,0,1,3742.5,583.4) translate(9.598148148148146 150.35555555555555)"/><use xlink:href="#G" transform="matrix(1,0,0,1,3742.5,583.4) translate(56.88765432098764 150.35555555555555)"/><use xlink:href="#H" transform="matrix(1,0,0,1,3742.5,583.4) translate(0 169.2888888888889)"/></g><path d="M3700.5 671h-31V561.87H3621" stroke="#000" stroke-width="2" fill="none"/><path d="M3715.76 671l-14.26 4.64v-9.28z" stroke="#000" stroke-width="2"/><path d="M3621.03 562.88H3620v-2h1.03z"/><path d="M3420 475.12h200V540h-200z" stroke="#000" stroke-opacity="0" stroke-width="2" fill="#fff" fill-opacity="0"/><g><use xlink:href="#O" transform="matrix(1,0,0,1,3425,480.11666666666673) translate(0 33.1875)"/></g><path d="M3621 507.56h79.5" stroke="#000" stroke-width="2" fill="none"/><path d="M3621.03 508.56H3620v-2h1.03z"/><path d="M3715.76 507.56l-14.26 4.63v-9.28z" stroke="#000" stroke-width="2"/><path d="M3720 493.52h300v26.14h-300z" fill="#fff" fill-opacity="0"/><path d="M3750 493.52h-30v26.14h30" stroke="#000" stroke-width="2" fill="none"/><g><use xlink:href="#P" transform="matrix(1,0,0,1,3743.75,498.5249599832795) translate(0 14.222222222222223)"/><use xlink:href="#Q" transform="matrix(1,0,0,1,3743.75,498.5249599832795) translate(58.17283950617285 14.222222222222223)"/><use xlink:href="#R" transform="matrix(1,0,0,1,3743.75,498.5249599832795) translate(80.79012345679013 14.222222222222223)"/><use xlink:href="#S" transform="matrix(1,0,0,1,3743.75,498.5249599832795) translate(0 35.55555555555556)"/></g><defs><path fill="#ff4757" d="M266 0h-40l-56-210L115 0H75L2-248h35L96-30l15-64 43-154h32l59 218 59-218h35" id="T"/><path fill="#ff4757" d="M141-36C126-15 110 5 73 4 37 3 15-17 15-53c-1-64 63-63 125-63 3-35-9-54-41-54-24 1-41 7-42 31l-33-3c5-37 33-52 76-52 45 0 72 20 72 64v82c-1 20 7 32 28 27v20c-31 9-61-2-59-35zM48-53c0 20 12 33 32 33 41-3 63-29 60-74-43 2-92-5-92 41" id="U"/><path fill="#ff4757" d="M114-163C36-179 61-72 57 0H25l-1-190h30c1 12-1 29 2 39 6-27 23-49 58-41v29" id="V"/><path fill="#ff4757" d="M117-194c89-4 53 116 60 194h-32v-121c0-31-8-49-39-48C34-167 62-67 57 0H25l-1-190h30c1 10-1 24 2 32 11-22 29-35 61-36" id="W"/><path fill="#ff4757" d="M24-231v-30h32v30H24zM24 0v-190h32V0H24" id="X"/><path fill="#ff4757" d="M177-190C167-65 218 103 67 71c-23-6-38-20-44-43l32-5c15 47 100 32 89-28v-30C133-14 115 1 83 1 29 1 15-40 15-95c0-56 16-97 71-98 29-1 48 16 59 35 1-10 0-23 2-32h30zM94-22c36 0 50-32 50-73 0-42-14-75-50-75-39 0-46 34-46 75s6 73 46 73" id="Y"/><g id="a"><use transform="matrix(0.056172839506172835,0,0,0.056172839506172835,0,0)" xlink:href="#T"/><use transform="matrix(0.056172839506172835,0,0,0.056172839506172835,18.312345679012346,0)" xlink:href="#U"/><use transform="matrix(0.056172839506172835,0,0,0.056172839506172835,29.546913580246912,0)" xlink:href="#V"/><use transform="matrix(0.056172839506172835,0,0,0.056172839506172835,36.23148148148148,0)" xlink:href="#W"/><use transform="matrix(0.056172839506172835,0,0,0.056172839506172835,47.46604938271605,0)" xlink:href="#X"/><use transform="matrix(0.056172839506172835,0,0,0.056172839506172835,51.903703703703705,0)" xlink:href="#W"/><use transform="matrix(0.056172839506172835,0,0,0.056172839506172835,63.13827160493827,0)" xlink:href="#Y"/></g><path d="M240 0l2-218c-23 76-54 145-80 218h-23L58-218 59 0H30v-248h44l77 211c21-75 51-140 76-211h43V0h-30" id="Z"/><path d="M141-36C126-15 110 5 73 4 37 3 15-17 15-53c-1-64 63-63 125-63 3-35-9-54-41-54-24 1-41 7-42 31l-33-3c5-37 33-52 76-52 45 0 72 20 72 64v82c-1 20 7 32 28 27v20c-31 9-61-2-59-35zM48-53c0 20 12 33 32 33 41-3 63-29 60-74-43 2-92-5-92 41" id="aa"/><path d="M141 0L90-78 38 0H4l68-98-65-92h35l48 74 47-74h35l-64 92 68 98h-35" id="ab"/><g id="b"><use transform="matrix(0.056172839506172835,0,0,0.056172839506172835,0,0)" xlink:href="#Z"/><use transform="matrix(0.056172839506172835,0,0,0.056172839506172835,16.795679012345676,0)" xlink:href="#aa"/><use transform="matrix(0.056172839506172835,0,0,0.056172839506172835,28.030246913580243,0)" xlink:href="#ab"/></g><path d="M110-160c48 1 74 30 74 79 0 53-28 85-80 85-65 0-83-55-86-122-5-90 50-162 133-122 14 7 22 21 27 39l-31 6c-5-40-67-38-82-6-9 19-15 44-15 74 11-20 30-34 60-33zm-7 138c34 0 49-23 49-58s-16-56-50-56c-29 0-50 16-49 49 1 36 15 65 50 65" id="ac"/><path d="M101-251c68 0 85 55 85 127S166 4 100 4C33 4 14-52 14-124c0-73 17-127 87-127zm-1 229c47 0 54-49 54-102s-4-102-53-102c-51 0-55 48-55 102 0 53 5 102 54 102" id="ad"/><g id="c"><use transform="matrix(0.056172839506172835,0,0,0.056172839506172835,0,0)" xlink:href="#ac"/><use transform="matrix(0.056172839506172835,0,0,0.056172839506172835,11.234567901234566,0)" xlink:href="#ad"/></g><path d="M145-31C134-9 116 4 85 4 32 4 16-35 15-94c0-59 17-99 70-100 32-1 48 14 60 33 0-11-1-24 2-32h30l-1 268h-32zM93-21c41 0 51-33 51-76s-8-73-50-73c-40 0-46 35-46 75s5 74 45 74" id="ae"/><path d="M84 4C-5 8 30-112 23-190h32v120c0 31 7 50 39 49 72-2 45-101 50-169h31l1 190h-30c-1-10 1-25-2-33-11 22-28 36-60 37" id="af"/><path d="M100-194c63 0 86 42 84 106H49c0 40 14 67 53 68 26 1 43-12 49-29l28 8c-11 28-37 45-77 45C44 4 14-33 15-96c1-61 26-98 85-98zm52 81c6-60-76-77-97-28-3 7-6 17-6 28h103" id="ag"/><path d="M114-163C36-179 61-72 57 0H25l-1-190h30c1 12-1 29 2 39 6-27 23-49 58-41v29" id="ah"/><path d="M24-231v-30h32v30H24zM24 0v-190h32V0H24" id="ai"/><path d="M135-143c-3-34-86-38-87 0 15 53 115 12 119 90S17 21 10-45l28-5c4 36 97 45 98 0-10-56-113-15-118-90-4-57 82-63 122-42 12 7 21 19 24 35" id="aj"/><g id="d"><use transform="matrix(0.056172839506172835,0,0,0.056172839506172835,0,0)" xlink:href="#ae"/><use transform="matrix(0.056172839506172835,0,0,0.056172839506172835,11.234567901234566,0)" xlink:href="#af"/><use transform="matrix(0.056172839506172835,0,0,0.056172839506172835,22.469135802469133,0)" xlink:href="#ag"/><use transform="matrix(0.056172839506172835,0,0,0.056172839506172835,33.703703703703695,0)" xlink:href="#ah"/><use transform="matrix(0.056172839506172835,0,0,0.056172839506172835,40.38827160493826,0)" xlink:href="#ai"/><use transform="matrix(0.056172839506172835,0,0,0.056172839506172835,44.825925925925915,0)" xlink:href="#ag"/><use transform="matrix(0.056172839506172835,0,0,0.056172839506172835,56.060493827160485,0)" xlink:href="#aj"/></g><path d="M115-194c55 1 70 41 70 98S169 2 115 4C84 4 66-9 55-30l1 105H24l-1-265h31l2 30c10-21 28-34 59-34zm-8 174c40 0 45-34 45-75s-6-73-45-74c-42 0-51 32-51 76 0 43 10 73 51 73" id="ak"/><g id="e"><use transform="matrix(0.056172839506172835,0,0,0.056172839506172835,0,0)" xlink:href="#ak"/><use transform="matrix(0.056172839506172835,0,0,0.056172839506172835,11.234567901234566,0)" xlink:href="#ag"/><use transform="matrix(0.056172839506172835,0,0,0.056172839506172835,22.469135802469133,0)" xlink:href="#ah"/></g><path d="M210-169c-67 3-38 105-44 169h-31v-121c0-29-5-50-35-48C34-165 62-65 56 0H25l-1-190h30c1 10-1 24 2 32 10-44 99-50 107 0 11-21 27-35 58-36 85-2 47 119 55 194h-31v-121c0-29-5-49-35-48" id="al"/><path d="M117-194c89-4 53 116 60 194h-32v-121c0-31-8-49-39-48C34-167 62-67 57 0H25l-1-190h30c1 10-1 24 2 32 11-22 29-35 61-36" id="am"/><path d="M59-47c-2 24 18 29 38 22v24C64 9 27 4 27-40v-127H5v-23h24l9-43h21v43h35v23H59v120" id="an"/><g id="f"><use transform="matrix(0.056172839506172835,0,0,0.056172839506172835,0,0)" xlink:href="#al"/><use transform="matrix(0.056172839506172835,0,0,0.056172839506172835,16.795679012345676,0)" xlink:href="#ai"/><use transform="matrix(0.056172839506172835,0,0,0.056172839506172835,21.23333333333333,0)" xlink:href="#am"/><use transform="matrix(0.056172839506172835,0,0,0.056172839506172835,32.4679012345679,0)" xlink:href="#af"/><use transform="matrix(0.056172839506172835,0,0,0.056172839506172835,43.70246913580246,0)" xlink:href="#an"/></g><path fill="#fff" d="M24 0v-248h52v208h133V0H24" id="ao"/><path fill="#fff" d="M199 0l-22-63H83L61 0H9l90-248h61L250 0h-51zm-33-102l-36-108c-10 38-24 72-36 108h72" id="ap"/><path fill="#fff" d="M240-174c0 40-23 61-54 70L253 0h-59l-57-94H76V0H24v-248c93 4 217-23 216 74zM76-134c48-2 112 12 112-38 0-48-66-32-112-35v73" id="aq"/><path fill="#fff" d="M147 0H94L2-248h55l64 206c17-72 42-137 63-206h54" id="ar"/><path fill="#fff" d="M24 0v-248h195v40H76v63h132v40H76v65h150V0H24" id="as"/><g id="g"><use transform="matrix(0.056172839506172835,0,0,0.056172839506172835,0,0)" xlink:href="#ao"/><use transform="matrix(0.056172839506172835,0,0,0.056172839506172835,12.30185185185185,0)" xlink:href="#ap"/><use transform="matrix(0.056172839506172835,0,0,0.056172839506172835,26.850617283950612,0)" xlink:href="#aq"/><use transform="matrix(0.056172839506172835,0,0,0.056172839506172835,41.399382716049374,0)" xlink:href="#ap"/><use transform="matrix(0.056172839506172835,0,0,0.056172839506172835,54.43148148148147,0)" xlink:href="#ar"/><use transform="matrix(0.056172839506172835,0,0,0.056172839506172835,67.91296296296295,0)" xlink:href="#as"/><use transform="matrix(0.056172839506172835,0,0,0.056172839506172835,81.39444444444443,0)" xlink:href="#ao"/></g><path fill="#fff" d="M0 4l72-265h28L28 4H0" id="at"/><path fill="#fff" d="M141-36C126-15 110 5 73 4 37 3 15-17 15-53c-1-64 63-63 125-63 3-35-9-54-41-54-24 1-41 7-42 31l-33-3c5-37 33-52 76-52 45 0 72 20 72 64v82c-1 20 7 32 28 27v20c-31 9-61-2-59-35zM48-53c0 20 12 33 32 33 41-3 63-29 60-74-43 2-92-5-92 41" id="au"/><path fill="#fff" d="M115-194c55 1 70 41 70 98S169 2 115 4C84 4 66-9 55-30l1 105H24l-1-265h31l2 30c10-21 28-34 59-34zm-8 174c40 0 45-34 45-75s-6-73-45-74c-42 0-51 32-51 76 0 43 10 73 51 73" id="av"/><path fill="#fff" d="M24-231v-30h32v30H24zM24 0v-190h32V0H24" id="aw"/><g id="h"><use transform="matrix(0.056172839506172835,0,0,0.056172839506172835,0,0)" xlink:href="#at"/><use transform="matrix(0.056172839506172835,0,0,0.056172839506172835,5.617283950617283,0)" xlink:href="#au"/><use transform="matrix(0.056172839506172835,0,0,0.056172839506172835,16.851851851851848,0)" xlink:href="#av"/><use transform="matrix(0.056172839506172835,0,0,0.056172839506172835,28.086419753086414,0)" xlink:href="#aw"/></g><path fill="#fff" d="M117-194c89-4 53 116 60 194h-32v-121c0-31-8-49-39-48C34-167 62-67 57 0H25l-1-190h30c1 10-1 24 2 32 11-22 29-35 61-36" id="ax"/><path fill="#fff" d="M59-47c-2 24 18 29 38 22v24C64 9 27 4 27-40v-127H5v-23h24l9-43h21v43h35v23H59v120" id="ay"/><path fill="#fff" d="M100-194c63 0 86 42 84 106H49c0 40 14 67 53 68 26 1 43-12 49-29l28 8c-11 28-37 45-77 45C44 4 14-33 15-96c1-61 26-98 85-98zm52 81c6-60-76-77-97-28-3 7-6 17-6 28h103" id="az"/><path fill="#fff" d="M24 0v-261h32V0H24" id="aA"/><g id="i"><use transform="matrix(0.056172839506172835,0,0,0.056172839506172835,0,0)" xlink:href="#at"/><use transform="matrix(0.056172839506172835,0,0,0.056172839506172835,5.617283950617283,0)" xlink:href="#aw"/><use transform="matrix(0.056172839506172835,0,0,0.056172839506172835,10.054938271604936,0)" xlink:href="#ax"/><use transform="matrix(0.056172839506172835,0,0,0.056172839506172835,21.289506172839502,0)" xlink:href="#ay"/><use transform="matrix(0.056172839506172835,0,0,0.056172839506172835,26.906790123456787,0)" xlink:href="#az"/><use transform="matrix(0.056172839506172835,0,0,0.056172839506172835,38.14135802469136,0)" xlink:href="#aA"/></g><path fill="#fff" d="M210-169c-67 3-38 105-44 169h-31v-121c0-29-5-50-35-48C34-165 62-65 56 0H25l-1-190h30c1 10-1 24 2 32 10-44 99-50 107 0 11-21 27-35 58-36 85-2 47 119 55 194h-31v-121c0-29-5-49-35-48" id="aB"/><path fill="#fff" d="M85-194c31 0 48 13 60 33l-1-100h32l1 261h-30c-2-10 0-23-3-31C134-8 116 4 85 4 32 4 16-35 15-94c0-66 23-100 70-100zm9 24c-40 0-46 34-46 75 0 40 6 74 45 74 42 0 51-32 51-76 0-42-9-74-50-73" id="aC"/><g id="j"><use transform="matrix(0.06234567901234567,0,0,0.06234567901234567,0,0)" xlink:href="#au"/><use transform="matrix(0.06234567901234567,0,0,0.06234567901234567,12.469135802469133,0)" xlink:href="#aB"/><use transform="matrix(0.06234567901234567,0,0,0.06234567901234567,31.110493827160486,0)" xlink:href="#aC"/></g><path fill="#fff" d="M17-49c1-102 45-165 103-212h30C92-210 49-145 49-46 49 4 63 43 85 75H54C30 43 18 2 17-49" id="aD"/><path fill="#fff" d="M55-144c13 50 104 24 104 88C159 21 15 23 1-39l26-10c6 40 102 42 102-4-13-50-104-23-104-87 0-71 143-71 148-8l-29 4c-5-35-85-37-89 0" id="aE"/><path fill="#fff" d="M30-147c31-64 166-65 159 27C183-49 158 1 86 4 9 8 1-88 30-147zM88-20c53 0 68-48 68-100 0-31-11-51-44-50-52 1-68 46-68 97 0 32 13 53 44 53" id="aF"/><path fill="#fff" d="M67-158c22-48 132-52 116 29L158 0h-32l25-140c3-38-53-32-70-12C52-117 51-52 38 0H6l36-190h30" id="aG"/><path fill="#fff" d="M98-137C97-35 54 29-4 75h-31C23 23 67-41 67-140c0-50-15-89-37-121h31c24 32 36 73 37 124" id="aH"/><g id="k"><use transform="matrix(0.04999999999999999,0,0,0.04999999999999999,0,0)" xlink:href="#aD"/><use transform="matrix(0.04999999999999999,0,0,0.04999999999999999,5.949999999999998,0)" xlink:href="#aE"/><use transform="matrix(0.04999999999999999,0,0,0.04999999999999999,14.949999999999998,0)" xlink:href="#aF"/><use transform="matrix(0.04999999999999999,0,0,0.04999999999999999,24.949999999999996,0)" xlink:href="#aF"/><use transform="matrix(0.04999999999999999,0,0,0.04999999999999999,34.949999999999996,0)" xlink:href="#aG"/><use transform="matrix(0.04999999999999999,0,0,0.04999999999999999,44.949999999999996,0)" xlink:href="#aH"/></g><path d="M85-194c31 0 48 13 60 33l-1-100h32l1 261h-30c-2-10 0-23-3-31C134-8 116 4 85 4 32 4 16-35 15-94c0-66 23-100 70-100zm9 24c-40 0-46 34-46 75 0 40 6 74 45 74 42 0 51-32 51-76 0-42-9-74-50-73" id="aI"/><path d="M100-194c62-1 85 37 85 99 1 63-27 99-86 99S16-35 15-95c0-66 28-99 85-99zM99-20c44 1 53-31 53-75 0-43-8-75-51-75s-53 32-53 75 10 74 51 75" id="aJ"/><g id="l"><use transform="matrix(0.056172839506172835,0,0,0.056172839506172835,0,0)" xlink:href="#ag"/><use transform="matrix(0.056172839506172835,0,0,0.056172839506172835,11.234567901234566,0)" xlink:href="#am"/><use transform="matrix(0.056172839506172835,0,0,0.056172839506172835,22.469135802469133,0)" xlink:href="#aI"/><use transform="matrix(0.056172839506172835,0,0,0.056172839506172835,33.703703703703695,0)" xlink:href="#ak"/><use transform="matrix(0.056172839506172835,0,0,0.056172839506172835,44.938271604938265,0)" xlink:href="#aJ"/><use transform="matrix(0.056172839506172835,0,0,0.056172839506172835,56.172839506172835,0)" xlink:href="#ai"/><use transform="matrix(0.056172839506172835,0,0,0.056172839506172835,60.61049382716049,0)" xlink:href="#am"/><use transform="matrix(0.056172839506172835,0,0,0.056172839506172835,71.84506172839505,0)" xlink:href="#an"/><use transform="matrix(0.056172839506172835,0,0,0.056172839506172835,77.46234567901233,0)" xlink:href="#aj"/></g><path fill="#ff843c" d="M0 4l72-265h28L28 4H0" id="aK"/><path fill="#ff843c" d="M117-194c89-4 53 116 60 194h-32v-121c0-31-8-49-39-48C34-167 62-67 57 0H25l-1-190h30c1 10-1 24 2 32 11-22 29-35 61-36" id="aL"/><path fill="#ff843c" d="M141-36C126-15 110 5 73 4 37 3 15-17 15-53c-1-64 63-63 125-63 3-35-9-54-41-54-24 1-41 7-42 31l-33-3c5-37 33-52 76-52 45 0 72 20 72 64v82c-1 20 7 32 28 27v20c-31 9-61-2-59-35zM48-53c0 20 12 33 32 33 41-3 63-29 60-74-43 2-92-5-92 41" id="aM"/><path fill="#ff843c" d="M210-169c-67 3-38 105-44 169h-31v-121c0-29-5-50-35-48C34-165 62-65 56 0H25l-1-190h30c1 10-1 24 2 32 10-44 99-50 107 0 11-21 27-35 58-36 85-2 47 119 55 194h-31v-121c0-29-5-49-35-48" id="aN"/><path fill="#ff843c" d="M100-194c63 0 86 42 84 106H49c0 40 14 67 53 68 26 1 43-12 49-29l28 8c-11 28-37 45-77 45C44 4 14-33 15-96c1-61 26-98 85-98zm52 81c6-60-76-77-97-28-3 7-6 17-6 28h103" id="aO"/><path fill="#ff843c" d="M39-94c74 12-11 154 75 146v23c-44 4-70-10-70-52C44-23 55-84 6-82v-22c81 4-7-162 84-157h24v23c-82-15-2 131-75 144" id="aP"/><path fill="#ff843c" d="M76-40C78 24 84 88 6 75V52C86 64 9-79 80-94c-40-6-34-59-34-106 1-29-11-41-40-38v-23c44-4 70 10 70 52 0 47-12 108 38 105v22c-26 1-39 14-38 42" id="aQ"/><g id="m"><use transform="matrix(0.05555555555555555,0,0,0.05555555555555555,0,0)" xlink:href="#aK"/><use transform="matrix(0.05555555555555555,0,0,0.05555555555555555,5.555555555555555,0)" xlink:href="#aL"/><use transform="matrix(0.05555555555555555,0,0,0.05555555555555555,16.666666666666664,0)" xlink:href="#aM"/><use transform="matrix(0.05555555555555555,0,0,0.05555555555555555,27.777777777777775,0)" xlink:href="#aN"/><use transform="matrix(0.05555555555555555,0,0,0.05555555555555555,44.388888888888886,0)" xlink:href="#aO"/><use transform="matrix(0.05555555555555555,0,0,0.05555555555555555,55.5,0)" xlink:href="#aK"/><use transform="matrix(0.05555555555555555,0,0,0.05555555555555555,61.05555555555555,0)" xlink:href="#aP"/><use transform="matrix(0.05555555555555555,0,0,0.05555555555555555,67.72222222222223,0)" xlink:href="#aL"/><use transform="matrix(0.05555555555555555,0,0,0.05555555555555555,78.83333333333334,0)" xlink:href="#aM"/><use transform="matrix(0.05555555555555555,0,0,0.05555555555555555,89.94444444444446,0)" xlink:href="#aN"/><use transform="matrix(0.05555555555555555,0,0,0.05555555555555555,106.55555555555557,0)" xlink:href="#aO"/><use transform="matrix(0.05555555555555555,0,0,0.05555555555555555,117.66666666666669,0)" xlink:href="#aQ"/></g><g id="n"><use transform="matrix(0.04320987654320988,0,0,0.04320987654320988,0,0)" xlink:href="#ag"/><use transform="matrix(0.04320987654320988,0,0,0.04320987654320988,8.641975308641976,0)" xlink:href="#ab"/></g><path d="M33-154v-36h34v36H33zM33 0v-36h34V0H33" id="aR"/><use transform="matrix(0.04320987654320988,0,0,0.04320987654320988,0,0)" xlink:href="#aR" id="o"/><path d="M99-251c64 0 84 50 84 122C183-37 130 33 47-8c-14-7-20-23-25-40l30-5c6 39 69 39 84 7 9-19 16-44 16-74-10 22-31 35-62 35-49 0-73-33-73-83 0-54 28-83 82-83zm-1 141c31-1 51-18 51-49 0-36-14-67-51-67-34 0-49 23-49 58 0 34 15 58 49 58" id="aS"/><path d="M16-82v-28h88v28H16" id="aT"/><path d="M27 0v-27h64v-190l-56 39v-29l58-41h29v221h61V0H27" id="aU"/><path d="M134-131c28 9 52 24 51 62-1 50-34 73-85 73S17-19 16-69c0-36 21-54 49-61-75-25-45-126 34-121 46 3 78 18 79 63 0 33-17 51-44 57zm-34-11c31 1 46-15 46-44 0-28-17-43-47-42-29 0-46 13-45 42 1 28 16 44 46 44zm1 122c35 0 51-18 51-52 0-30-18-46-53-46-33 0-51 17-51 47 0 34 19 51 53 51" id="aV"/><path d="M195 0l-74-108L45 0H8l94-129-87-119h37l69 98 67-98h37l-84 118L233 0h-38" id="aW"/><path d="M30 0v-248h187v28H63v79h144v27H63v87h162V0H30" id="aX"/><g id="p"><use transform="matrix(0.04320987654320988,0,0,0.04320987654320988,0,0)" xlink:href="#ai"/><use transform="matrix(0.04320987654320988,0,0,0.04320987654320988,3.4135802469135808,0)" xlink:href="#aS"/><use transform="matrix(0.04320987654320988,0,0,0.04320987654320988,12.055555555555557,0)" xlink:href="#aT"/><use transform="matrix(0.04320987654320988,0,0,0.04320987654320988,17.19753086419753,0)" xlink:href="#aU"/><use transform="matrix(0.04320987654320988,0,0,0.04320987654320988,25.839506172839503,0)" xlink:href="#ad"/><use transform="matrix(0.04320987654320988,0,0,0.04320987654320988,34.48148148148148,0)" xlink:href="#aS"/><use transform="matrix(0.04320987654320988,0,0,0.04320987654320988,43.123456790123456,0)" xlink:href="#aV"/><use transform="matrix(0.04320987654320988,0,0,0.04320987654320988,51.76543209876543,0)" xlink:href="#ad"/><use transform="matrix(0.04320987654320988,0,0,0.04320987654320988,60.407407407407405,0)" xlink:href="#aW"/><use transform="matrix(0.04320987654320988,0,0,0.04320987654320988,70.77777777777777,0)" xlink:href="#aX"/></g><path fill="#ff843c" d="M101-234c-31-9-42 10-38 44h38v23H63V0H32v-167H5v-23h27c-7-52 17-82 69-68v24" id="aY"/><path fill="#ff843c" d="M24-231v-30h32v30H24zM24 0v-190h32V0H24" id="aZ"/><path fill="#ff843c" d="M24 0v-261h32V0H24" id="ba"/><path fill="#ff843c" d="M179-190L93 31C79 59 56 82 12 73V49c39 6 53-20 64-50L1-190h34L92-34l54-156h33" id="bb"/><g id="q"><use transform="matrix(0.05555555555555555,0,0,0.05555555555555555,0,0)" xlink:href="#aK"/><use transform="matrix(0.05555555555555555,0,0,0.05555555555555555,5.555555555555555,0)" xlink:href="#aY"/><use transform="matrix(0.05555555555555555,0,0,0.05555555555555555,11.11111111111111,0)" xlink:href="#aM"/><use transform="matrix(0.05555555555555555,0,0,0.05555555555555555,22.22222222222222,0)" xlink:href="#aN"/><use transform="matrix(0.05555555555555555,0,0,0.05555555555555555,38.83333333333333,0)" xlink:href="#aZ"/><use transform="matrix(0.05555555555555555,0,0,0.05555555555555555,43.222222222222214,0)" xlink:href="#ba"/><use transform="matrix(0.05555555555555555,0,0,0.05555555555555555,47.6111111111111,0)" xlink:href="#bb"/><use transform="matrix(0.05555555555555555,0,0,0.05555555555555555,57.61111111111109,0)" xlink:href="#aK"/><use transform="matrix(0.05555555555555555,0,0,0.05555555555555555,63.166666666666664,0)" xlink:href="#aP"/><use transform="matrix(0.05555555555555555,0,0,0.05555555555555555,69.83333333333333,0)" xlink:href="#aY"/><use transform="matrix(0.05555555555555555,0,0,0.05555555555555555,75.38888888888889,0)" xlink:href="#aM"/><use transform="matrix(0.05555555555555555,0,0,0.05555555555555555,86.5,0)" xlink:href="#aN"/><use transform="matrix(0.05555555555555555,0,0,0.05555555555555555,103.11111111111111,0)" xlink:href="#aZ"/><use transform="matrix(0.05555555555555555,0,0,0.05555555555555555,107.5,0)" xlink:href="#ba"/><use transform="matrix(0.05555555555555555,0,0,0.05555555555555555,111.88888888888889,0)" xlink:href="#bb"/><use transform="matrix(0.05555555555555555,0,0,0.05555555555555555,121.88888888888889,0)" xlink:href="#aQ"/></g><path d="M96-169c-40 0-48 33-48 73s9 75 48 75c24 0 41-14 43-38l32 2c-6 37-31 61-74 61-59 0-76-41-82-99-10-93 101-131 147-64 4 7 5 14 7 22l-32 3c-4-21-16-35-41-35" id="bc"/><path d="M68-38c1 34 0 65-14 84H32c9-13 17-26 17-46H33v-38h35" id="bd"/><g id="r"><use transform="matrix(0.04320987654320988,0,0,0.04320987654320988,0,0)" xlink:href="#bc"/><use transform="matrix(0.04320987654320988,0,0,0.04320987654320988,7.777777777777779,0)" xlink:href="#aJ"/><use transform="matrix(0.04320987654320988,0,0,0.04320987654320988,16.419753086419753,0)" xlink:href="#ah"/><use transform="matrix(0.04320987654320988,0,0,0.04320987654320988,21.561728395061728,0)" xlink:href="#ag"/><use transform="matrix(0.04320987654320988,0,0,0.04320987654320988,30.203703703703702,0)" xlink:href="#bd"/><use transform="matrix(0.04320987654320988,0,0,0.04320987654320988,34.52469135802469,0)" xlink:href="#aa"/><use transform="matrix(0.04320987654320988,0,0,0.04320987654320988,43.166666666666664,0)" xlink:href="#an"/><use transform="matrix(0.04320987654320988,0,0,0.04320987654320988,47.48765432098765,0)" xlink:href="#aJ"/><use transform="matrix(0.04320987654320988,0,0,0.04320987654320988,56.129629629629626,0)" xlink:href="#al"/><use transform="matrix(0.04320987654320988,0,0,0.04320987654320988,69.04938271604938,0)" xlink:href="#bd"/><use transform="matrix(0.04320987654320988,0,0,0.04320987654320988,73.37037037037037,0)" xlink:href="#ab"/><use transform="matrix(0.04320987654320988,0,0,0.04320987654320988,81.14814814814815,0)" xlink:href="#ag"/><use transform="matrix(0.04320987654320988,0,0,0.04320987654320988,89.79012345679013,0)" xlink:href="#aJ"/><use transform="matrix(0.04320987654320988,0,0,0.04320987654320988,98.43209876543212,0)" xlink:href="#am"/></g><path d="M33 0v-38h34V0H33" id="be"/><g id="s"><use transform="matrix(0.04320987654320988,0,0,0.04320987654320988,0,0)" xlink:href="#be"/><use transform="matrix(0.04320987654320988,0,0,0.04320987654320988,4.320987654320988,0)" xlink:href="#be"/><use transform="matrix(0.04320987654320988,0,0,0.04320987654320988,8.641975308641976,0)" xlink:href="#be"/></g><path d="M233-177c-1 41-23 64-60 70L243 0h-38l-65-103H63V0H30v-248c88 3 205-21 203 71zM63-129c60-2 137 13 137-47 0-61-80-42-137-45v92" id="bf"/><g id="t"><use transform="matrix(0.04938271604938272,0,0,0.04938271604938272,0,0)" xlink:href="#bf"/><use transform="matrix(0.04938271604938272,0,0,0.04938271604938272,12.790123456790125,0)" xlink:href="#ag"/><use transform="matrix(0.04938271604938272,0,0,0.04938271604938272,22.66666666666667,0)" xlink:href="#an"/><use transform="matrix(0.04938271604938272,0,0,0.04938271604938272,27.604938271604947,0)" xlink:href="#af"/><use transform="matrix(0.04938271604938272,0,0,0.04938271604938272,37.48148148148149,0)" xlink:href="#ah"/><use transform="matrix(0.04938271604938272,0,0,0.04938271604938272,43.35802469135803,0)" xlink:href="#am"/></g><path d="M24 0v-261h32V0H24" id="bg"/><g id="u"><use transform="matrix(0.04938271604938272,0,0,0.04938271604938272,0,0)" xlink:href="#aa"/><use transform="matrix(0.04938271604938272,0,0,0.04938271604938272,9.876543209876544,0)" xlink:href="#bg"/><use transform="matrix(0.04938271604938272,0,0,0.04938271604938272,13.777777777777779,0)" xlink:href="#bg"/></g><g id="v"><use transform="matrix(0.04938271604938272,0,0,0.04938271604938272,0,0)" xlink:href="#aj"/><use transform="matrix(0.04938271604938272,0,0,0.04938271604938272,8.88888888888889,0)" xlink:href="#ak"/><use transform="matrix(0.04938271604938272,0,0,0.04938271604938272,18.765432098765434,0)" xlink:href="#ag"/><use transform="matrix(0.04938271604938272,0,0,0.04938271604938272,28.641975308641978,0)" xlink:href="#bc"/><use transform="matrix(0.04938271604938272,0,0,0.04938271604938272,37.53086419753087,0)" xlink:href="#aj"/></g><path d="M101-234c-31-9-42 10-38 44h38v23H63V0H32v-167H5v-23h27c-7-52 17-82 69-68v24" id="bh"/><g id="w"><use transform="matrix(0.04938271604938272,0,0,0.04938271604938272,0,0)" xlink:href="#bh"/><use transform="matrix(0.04938271604938272,0,0,0.04938271604938272,4.938271604938272,0)" xlink:href="#aJ"/><use transform="matrix(0.04938271604938272,0,0,0.04938271604938272,14.814814814814817,0)" xlink:href="#ah"/></g><path fill="#ff4757" d="M23 0v-37h61v-169l-59 37v-38l62-41h46v211h57V0H23" id="bi"/><use transform="matrix(0.04938271604938272,0,0,0.04938271604938272,0,0)" xlink:href="#bi" id="x"/><path fill="#ff4757" d="M67-125c0 53 21 87 73 88 37 1 54-22 65-47l45 17C233-25 199 4 140 4 58 4 20-42 15-125 8-235 124-281 211-232c18 10 29 29 36 50l-46 12c-8-25-30-41-62-41-52 0-71 34-72 86" id="bj"/><path fill="#ff4757" d="M24-248c93 1 206-16 204 79-1 75-69 88-152 82V0H24v-248zm52 121c47 0 100 7 100-41 0-47-54-39-100-39v80" id="bk"/><path fill="#ff4757" d="M238-95c0 69-44 99-111 99C63 4 22-25 22-93v-155h51v151c-1 38 19 59 55 60 90 1 49-130 58-211h52v153" id="bl"/><g id="y"><use transform="matrix(0.04938271604938272,0,0,0.04938271604938272,0,0)" xlink:href="#bj"/><use transform="matrix(0.04938271604938272,0,0,0.04938271604938272,12.790123456790125,0)" xlink:href="#bk"/><use transform="matrix(0.04938271604938272,0,0,0.04938271604938272,24.641975308641978,0)" xlink:href="#bl"/></g><use transform="matrix(0.04382716049382715,0,0,0.04382716049382715,0,0)" xlink:href="#aT" id="A"/><g id="B"><use transform="matrix(0.04382716049382715,0,0,0.04382716049382715,0,0)" xlink:href="#am"/><use transform="matrix(0.04382716049382715,0,0,0.04382716049382715,8.76543209876543,0)" xlink:href="#aa"/><use transform="matrix(0.04382716049382715,0,0,0.04382716049382715,17.53086419753086,0)" xlink:href="#al"/><use transform="matrix(0.04382716049382715,0,0,0.04382716049382715,30.63518518518518,0)" xlink:href="#ag"/></g><path d="M177-190C167-65 218 103 67 71c-23-6-38-20-44-43l32-5c15 47 100 32 89-28v-30C133-14 115 1 83 1 29 1 15-40 15-95c0-56 16-97 71-98 29-1 48 16 59 35 1-10 0-23 2-32h30zM94-22c36 0 50-32 50-73 0-42-14-75-50-75-39 0-46 34-46 75s6 73 46 73" id="bm"/><g id="C"><use transform="matrix(0.04382716049382715,0,0,0.04382716049382715,0,0)" xlink:href="#aj"/><use transform="matrix(0.04382716049382715,0,0,0.04382716049382715,7.888888888888887,0)" xlink:href="#ag"/><use transform="matrix(0.04382716049382715,0,0,0.04382716049382715,16.654320987654316,0)" xlink:href="#bm"/><use transform="matrix(0.04382716049382715,0,0,0.04382716049382715,25.419753086419746,0)" xlink:href="#al"/><use transform="matrix(0.04382716049382715,0,0,0.04382716049382715,38.524074074074065,0)" xlink:href="#ag"/><use transform="matrix(0.04382716049382715,0,0,0.04382716049382715,47.289506172839495,0)" xlink:href="#am"/><use transform="matrix(0.04382716049382715,0,0,0.04382716049382715,56.054938271604925,0)" xlink:href="#an"/></g><path d="M106-169C34-169 62-67 57 0H25v-261h32l-1 103c12-21 28-36 61-36 89 0 53 116 60 194h-32v-121c2-32-8-49-39-48" id="bn"/><path d="M179-190L93 31C79 59 56 82 12 73V49c39 6 53-20 64-50L1-190h34L92-34l54-156h33" id="bo"/><g id="D"><use transform="matrix(0.04382716049382715,0,0,0.04382716049382715,0,0)" xlink:href="#bg"/><use transform="matrix(0.04382716049382715,0,0,0.04382716049382715,3.462345679012345,0)" xlink:href="#ai"/><use transform="matrix(0.04382716049382715,0,0,0.04382716049382715,6.92469135802469,0)" xlink:href="#an"/><use transform="matrix(0.04382716049382715,0,0,0.04382716049382715,11.307407407407405,0)" xlink:href="#bn"/><use transform="matrix(0.04382716049382715,0,0,0.04382716049382715,20.072839506172834,0)" xlink:href="#aJ"/><use transform="matrix(0.04382716049382715,0,0,0.04382716049382715,28.838271604938264,0)" xlink:href="#bm"/><use transform="matrix(0.04382716049382715,0,0,0.04382716049382715,37.603703703703694,0)" xlink:href="#ah"/><use transform="matrix(0.04382716049382715,0,0,0.04382716049382715,42.81913580246913,0)" xlink:href="#aa"/><use transform="matrix(0.04382716049382715,0,0,0.04382716049382715,51.58456790123456,0)" xlink:href="#ak"/><use transform="matrix(0.04382716049382715,0,0,0.04382716049382715,60.34999999999999,0)" xlink:href="#bn"/><use transform="matrix(0.04382716049382715,0,0,0.04382716049382715,69.11543209876541,0)" xlink:href="#bo"/></g><g id="E"><use transform="matrix(0.04382716049382715,0,0,0.04382716049382715,0,0)" xlink:href="#bh"/><use transform="matrix(0.04382716049382715,0,0,0.04382716049382715,4.382716049382715,0)" xlink:href="#ah"/><use transform="matrix(0.04382716049382715,0,0,0.04382716049382715,9.598148148148146,0)" xlink:href="#ag"/><use transform="matrix(0.04382716049382715,0,0,0.04382716049382715,18.36358024691358,0)" xlink:href="#ae"/><use transform="matrix(0.04382716049382715,0,0,0.04382716049382715,27.129012345679012,0)" xlink:href="#af"/><use transform="matrix(0.04382716049382715,0,0,0.04382716049382715,35.89444444444444,0)" xlink:href="#ag"/><use transform="matrix(0.04382716049382715,0,0,0.04382716049382715,44.65987654320987,0)" xlink:href="#am"/><use transform="matrix(0.04382716049382715,0,0,0.04382716049382715,53.4253086419753,0)" xlink:href="#bc"/><use transform="matrix(0.04382716049382715,0,0,0.04382716049382715,61.314197530864185,0)" xlink:href="#bo"/></g><g id="F"><use transform="matrix(0.04382716049382715,0,0,0.04382716049382715,0,0)" xlink:href="#bc"/><use transform="matrix(0.04382716049382715,0,0,0.04382716049382715,7.888888888888887,0)" xlink:href="#aJ"/><use transform="matrix(0.04382716049382715,0,0,0.04382716049382715,16.654320987654316,0)" xlink:href="#ah"/><use transform="matrix(0.04382716049382715,0,0,0.04382716049382715,21.86975308641975,0)" xlink:href="#ag"/><use transform="matrix(0.04382716049382715,0,0,0.04382716049382715,30.63518518518518,0)" xlink:href="#aj"/><use transform="matrix(0.04382716049382715,0,0,0.04382716049382715,38.524074074074065,0)" xlink:href="#bd"/></g><g id="G"><use transform="matrix(0.04382716049382715,0,0,0.04382716049382715,0,0)" xlink:href="#an"/><use transform="matrix(0.04382716049382715,0,0,0.04382716049382715,4.382716049382715,0)" xlink:href="#bn"/><use transform="matrix(0.04382716049382715,0,0,0.04382716049382715,13.148148148148145,0)" xlink:href="#ah"/><use transform="matrix(0.04382716049382715,0,0,0.04382716049382715,18.36358024691358,0)" xlink:href="#ag"/><use transform="matrix(0.04382716049382715,0,0,0.04382716049382715,27.129012345679012,0)" xlink:href="#aa"/><use transform="matrix(0.04382716049382715,0,0,0.04382716049382715,35.89444444444444,0)" xlink:href="#aI"/><use transform="matrix(0.04382716049382715,0,0,0.04382716049382715,44.65987654320987,0)" xlink:href="#aj"/></g><g id="H"><use transform="matrix(0.04382716049382715,0,0,0.04382716049382715,0,0)" xlink:href="#ag"/><use transform="matrix(0.04382716049382715,0,0,0.04382716049382715,8.76543209876543,0)" xlink:href="#an"/><use transform="matrix(0.04382716049382715,0,0,0.04382716049382715,13.148148148148145,0)" xlink:href="#bc"/><use transform="matrix(0.04382716049382715,0,0,0.04382716049382715,21.03703703703703,0)" xlink:href="#be"/><use transform="matrix(0.04382716049382715,0,0,0.04382716049382715,25.419753086419746,0)" xlink:href="#be"/><use transform="matrix(0.04382716049382715,0,0,0.04382716049382715,29.80246913580246,0)" xlink:href="#be"/></g><path fill="#ff4757" d="M133-34C117-15 103 5 69 4 32 3 11-16 11-54c-1-60 55-63 116-61 1-26-3-47-28-47-18 1-26 9-28 27l-52-2c7-38 36-58 82-57s74 22 75 68l1 82c-1 14 12 18 25 15v27c-30 8-71 5-69-32zm-48 3c29 0 43-24 42-57-32 0-66-3-65 30 0 17 8 27 23 27" id="bp"/><path fill="#ff4757" d="M25 0v-261h50V0H25" id="bq"/><g id="I"><use transform="matrix(0.04938271604938272,0,0,0.04938271604938272,0,0)" xlink:href="#bp"/><use transform="matrix(0.04938271604938272,0,0,0.04938271604938272,9.876543209876544,0)" xlink:href="#bq"/><use transform="matrix(0.04938271604938272,0,0,0.04938271604938272,14.814814814814817,0)" xlink:href="#bq"/></g><path fill="#ff4757" d="M169-182c-1-43-94-46-97-3 18 66 151 10 154 114 3 95-165 93-204 36-6-8-10-19-12-30l50-8c3 46 112 56 116 5-17-69-150-10-154-114-4-87 153-88 188-35 5 8 8 18 10 28" id="br"/><g id="J"><use transform="matrix(0.04938271604938272,0,0,0.04938271604938272,0,0)" xlink:href="#bj"/><use transform="matrix(0.04938271604938272,0,0,0.04938271604938272,12.790123456790125,0)" xlink:href="#bk"/><use transform="matrix(0.04938271604938272,0,0,0.04938271604938272,24.641975308641978,0)" xlink:href="#bl"/><use transform="matrix(0.04938271604938272,0,0,0.04938271604938272,37.4320987654321,0)" xlink:href="#br"/></g><path fill="#ff4757" d="M110-194c64 0 96 36 96 99 0 64-35 99-97 99-61 0-95-36-95-99 0-62 34-99 96-99zm-1 164c35 0 45-28 45-65 0-40-10-65-43-65-34 0-45 26-45 65 0 36 10 65 43 65" id="bs"/><path fill="#ff4757" d="M121-226c-27-7-43 5-38 36h38v33H83V0H34v-157H6v-33h28c-9-59 32-81 87-68v32" id="bt"/><g id="K"><use transform="matrix(0.04938271604938272,0,0,0.04938271604938272,0,0)" xlink:href="#bs"/><use transform="matrix(0.04938271604938272,0,0,0.04938271604938272,10.814814814814815,0)" xlink:href="#bt"/></g><path fill="#ff4757" d="M115-3C79 11 28 4 28-45v-112H4v-33h27l15-45h31v45h36v33H77v99c-1 23 16 31 38 25v30" id="bu"/><path fill="#ff4757" d="M114-157C55-157 80-60 75 0H25v-261h50l-1 109c12-26 28-41 61-42 86-1 58 113 63 194h-50c-7-57 23-157-34-157" id="bv"/><path fill="#ff4757" d="M185-48c-13 30-37 53-82 52C43 2 14-33 14-96s30-98 90-98c62 0 83 45 84 108H66c0 31 8 55 39 56 18 0 30-7 34-22zm-45-69c5-46-57-63-70-21-2 6-4 13-4 21h74" id="bw"/><g id="L"><use transform="matrix(0.04938271604938272,0,0,0.04938271604938272,0,0)" xlink:href="#bu"/><use transform="matrix(0.04938271604938272,0,0,0.04938271604938272,5.8765432098765435,0)" xlink:href="#bv"/><use transform="matrix(0.04938271604938272,0,0,0.04938271604938272,16.691358024691358,0)" xlink:href="#bw"/></g><path fill="#ff4757" d="M137-138c1-29-70-34-71-4 15 46 118 7 119 86 1 83-164 76-172 9l43-7c4 19 20 25 44 25 33 8 57-30 24-41C81-84 22-81 20-136c-2-80 154-74 161-7" id="bx"/><path fill="#ff4757" d="M190-63c-7 42-38 67-86 67-59 0-84-38-90-98-12-110 154-137 174-36l-49 2c-2-19-15-32-35-32-30 0-35 28-38 64-6 74 65 87 74 30" id="by"/><path fill="#ff4757" d="M88-194c31-1 46 15 58 34l-1-101h50l1 261h-48c-2-10 0-23-3-31C134-8 116 4 84 4 32 4 16-41 15-95c0-56 19-97 73-99zm17 164c33 0 40-30 41-66 1-37-9-64-41-64s-38 30-39 65c0 43 13 65 39 65" id="bz"/><g id="M"><use transform="matrix(0.04938271604938272,0,0,0.04938271604938272,0,0)" xlink:href="#bx"/><use transform="matrix(0.04938271604938272,0,0,0.04938271604938272,9.876543209876544,0)" xlink:href="#bw"/><use transform="matrix(0.04938271604938272,0,0,0.04938271604938272,19.75308641975309,0)" xlink:href="#bq"/><use transform="matrix(0.04938271604938272,0,0,0.04938271604938272,24.69135802469136,0)" xlink:href="#bw"/><use transform="matrix(0.04938271604938272,0,0,0.04938271604938272,34.567901234567906,0)" xlink:href="#by"/><use transform="matrix(0.04938271604938272,0,0,0.04938271604938272,44.44444444444445,0)" xlink:href="#bu"/><use transform="matrix(0.04938271604938272,0,0,0.04938271604938272,50.320987654320994,0)" xlink:href="#bw"/><use transform="matrix(0.04938271604938272,0,0,0.04938271604938272,60.19753086419754,0)" xlink:href="#bz"/></g><path fill="#ff4757" d="M135-150c-39-12-60 13-60 57V0H25l-1-190h47c2 13-1 29 3 40 6-28 27-53 61-41v41" id="bA"/><path fill="#ff4757" d="M135-194c87-1 58 113 63 194h-50c-7-57 23-157-34-157-59 0-34 97-39 157H25l-1-190h47c2 12-1 28 3 38 12-26 28-41 61-42" id="bB"/><path fill="#ff4757" d="M195-6C206 82 75 100 31 46c-4-6-6-13-8-21l49-6c3 16 16 24 34 25 40 0 42-37 40-79-11 22-30 35-61 35-53 0-70-43-70-97 0-56 18-96 73-97 30 0 46 14 59 34l2-30h47zm-90-29c32 0 41-27 41-63 0-35-9-62-40-62-32 0-39 29-40 63 0 36 9 62 39 62" id="bC"/><g id="N"><use transform="matrix(0.04938271604938272,0,0,0.04938271604938272,0,0)" xlink:href="#bA"/><use transform="matrix(0.04938271604938272,0,0,0.04938271604938272,6.913580246913581,0)" xlink:href="#bp"/><use transform="matrix(0.04938271604938272,0,0,0.04938271604938272,16.790123456790127,0)" xlink:href="#bB"/><use transform="matrix(0.04938271604938272,0,0,0.04938271604938272,27.604938271604947,0)" xlink:href="#bC"/><use transform="matrix(0.04938271604938272,0,0,0.04938271604938272,38.41975308641976,0)" xlink:href="#bw"/></g><g id="O"><use transform="matrix(0.05555555555555555,0,0,0.05555555555555555,0,0)" xlink:href="#aK"/><use transform="matrix(0.05555555555555555,0,0,0.05555555555555555,5.555555555555555,0)" xlink:href="#aY"/><use transform="matrix(0.05555555555555555,0,0,0.05555555555555555,11.11111111111111,0)" xlink:href="#aM"/><use transform="matrix(0.05555555555555555,0,0,0.05555555555555555,22.22222222222222,0)" xlink:href="#aN"/><use transform="matrix(0.05555555555555555,0,0,0.05555555555555555,38.83333333333333,0)" xlink:href="#aZ"/><use transform="matrix(0.05555555555555555,0,0,0.05555555555555555,43.222222222222214,0)" xlink:href="#ba"/><use transform="matrix(0.05555555555555555,0,0,0.05555555555555555,47.6111111111111,0)" xlink:href="#bb"/></g><g id="P"><use transform="matrix(0.04938271604938272,0,0,0.04938271604938272,0,0)" xlink:href="#bf"/><use transform="matrix(0.04938271604938272,0,0,0.04938271604938272,12.790123456790125,0)" xlink:href="#ag"/><use transform="matrix(0.04938271604938272,0,0,0.04938271604938272,22.66666666666667,0)" xlink:href="#an"/><use transform="matrix(0.04938271604938272,0,0,0.04938271604938272,27.604938271604947,0)" xlink:href="#af"/><use transform="matrix(0.04938271604938272,0,0,0.04938271604938272,37.48148148148149,0)" xlink:href="#ah"/><use transform="matrix(0.04938271604938272,0,0,0.04938271604938272,43.35802469135803,0)" xlink:href="#am"/></g><g id="Q"><use transform="matrix(0.04938271604938272,0,0,0.04938271604938272,0,0)" xlink:href="#aa"/><use transform="matrix(0.04938271604938272,0,0,0.04938271604938272,9.876543209876544,0)" xlink:href="#bg"/><use transform="matrix(0.04938271604938272,0,0,0.04938271604938272,13.777777777777779,0)" xlink:href="#bg"/></g><g id="R"><use transform="matrix(0.04938271604938272,0,0,0.04938271604938272,0,0)" xlink:href="#bh"/><use transform="matrix(0.04938271604938272,0,0,0.04938271604938272,4.938271604938272,0)" xlink:href="#aa"/><use transform="matrix(0.04938271604938272,0,0,0.04938271604938272,14.814814814814817,0)" xlink:href="#al"/><use transform="matrix(0.04938271604938272,0,0,0.04938271604938272,29.58024691358025,0)" xlink:href="#ai"/><use transform="matrix(0.04938271604938272,0,0,0.04938271604938272,33.48148148148149,0)" xlink:href="#bg"/><use transform="matrix(0.04938271604938272,0,0,0.04938271604938272,37.38271604938272,0)" xlink:href="#ai"/><use transform="matrix(0.04938271604938272,0,0,0.04938271604938272,41.283950617283956,0)" xlink:href="#ag"/><use transform="matrix(0.04938271604938272,0,0,0.04938271604938272,51.1604938271605,0)" xlink:href="#aj"/></g></defs></g></svg>