<svg xmlns="http://www.w3.org/2000/svg" xmlns:xlink="http://www.w3.org/1999/xlink" xmlns:lucid="lucid" width="1422.83" height="1254.68"><g transform="translate(-420 -51.59999999999991)" lucid:page-tab-id="0_0"><path d="M0 0h1870.4v1323.2H0z" fill="#fff"/><path d="M687.07 901.6h371.96v200H687.07z" fill="none"/><use xlink:href="#a" transform="matrix(1,0,0,1,687.0651487463931,901.5999999999999) translate(0 31.24444444444444)"/><use xlink:href="#b" transform="matrix(1,0,0,1,687.0651487463931,901.5999999999999) translate(57.18395061728395 31.24444444444444)"/><use xlink:href="#c" transform="matrix(1,0,0,1,687.0651487463931,901.5999999999999) translate(85.27037037037036 31.24444444444444)"/><use xlink:href="#d" transform="matrix(1,0,0,1,687.0651487463931,901.5999999999999) translate(137.9604938271605 31.24444444444444)"/><use xlink:href="#e" transform="matrix(1,0,0,1,687.0651487463931,901.5999999999999) translate(228.79197530864195 31.24444444444444)"/><use xlink:href="#f" transform="matrix(1,0,0,1,687.0651487463931,901.5999999999999) translate(261.2598765432098 31.24444444444444)"/><use xlink:href="#g" transform="matrix(1,0,0,1,687.0651487463931,901.5999999999999) translate(0 55.511111111111106)"/><use xlink:href="#h" transform="matrix(1,0,0,1,687.0651487463931,901.5999999999999) translate(0 79.77777777777777)"/><use xlink:href="#i" transform="matrix(1,0,0,1,687.0651487463931,901.5999999999999) translate(0 104.04444444444444)"/><use xlink:href="#j" transform="matrix(1,0,0,1,687.0651487463931,901.5999999999999) translate(16.851851851851848 104.04444444444444)"/><use xlink:href="#k" transform="matrix(1,0,0,1,687.0651487463931,901.5999999999999) translate(50.55555555555554 104.04444444444444)"/><use xlink:href="#l" transform="matrix(1,0,0,1,687.0651487463931,901.5999999999999) translate(134.70246913580246 104.04444444444444)"/><use xlink:href="#m" transform="matrix(1,0,0,1,687.0651487463931,901.5999999999999) translate(206.60370370370367 104.04444444444444)"/><use xlink:href="#n" transform="matrix(1,0,0,1,687.0651487463931,901.5999999999999) translate(0 128.3111111111111)"/><use xlink:href="#o" transform="matrix(1,0,0,1,687.0651487463931,901.5999999999999) translate(23.53641975308642 128.3111111111111)"/><use xlink:href="#p" transform="matrix(1,0,0,1,687.0651487463931,901.5999999999999) translate(79.6530864197531 128.3111111111111)"/><use xlink:href="#q" transform="matrix(1,0,0,1,687.0651487463931,901.5999999999999) translate(139.14012345679015 128.3111111111111)"/><use xlink:href="#r" transform="matrix(1,0,0,1,687.0651487463931,901.5999999999999) translate(0 152.57777777777775)"/><use xlink:href="#s" transform="matrix(1,0,0,1,687.0651487463931,901.5999999999999) translate(23.53641975308642 152.57777777777775)"/><use xlink:href="#t" transform="matrix(1,0,0,1,687.0651487463931,901.5999999999999) translate(78.52962962962962 152.57777777777775)"/><use xlink:href="#u" transform="matrix(1,0,0,1,687.0651487463931,901.5999999999999) translate(104.25679012345678 152.57777777777775)"/><use xlink:href="#v" transform="matrix(1,0,0,1,687.0651487463931,901.5999999999999) translate(150.20617283950617 152.57777777777775)"/><use xlink:href="#w" transform="matrix(1,0,0,1,687.0651487463931,901.5999999999999) translate(189.52716049382715 152.57777777777775)"/><use xlink:href="#x" transform="matrix(1,0,0,1,687.0651487463931,901.5999999999999) translate(240.02654320987654 152.57777777777775)"/><use xlink:href="#y" transform="matrix(1,0,0,1,687.0651487463931,901.5999999999999) translate(282.6617283950617 152.57777777777775)"/><use xlink:href="#z" transform="matrix(1,0,0,1,687.0651487463931,901.5999999999999) translate(0 176.84444444444443)"/><path d="M440 902.1h188.33v199.5H440z" fill="none"/><use xlink:href="#A" transform="matrix(1,0,0,1,440,902.0999999999999) translate(6.269753086419797 79.77777777777777)"/><use xlink:href="#B" transform="matrix(1,0,0,1,440,902.0999999999999) translate(55.58950617283954 79.77777777777777)"/><use xlink:href="#C" transform="matrix(1,0,0,1,440,902.0999999999999) translate(83.67592592592595 79.77777777777777)"/><use xlink:href="#D" transform="matrix(1,0,0,1,440,902.0999999999999) translate(120.69382716049384 79.77777777777777)"/><use xlink:href="#E" transform="matrix(1,0,0,1,440,902.0999999999999) translate(161.0820987654321 79.77777777777777)"/><use xlink:href="#F" transform="matrix(1,0,0,1,440,902.0999999999999) translate(154.22901234567902 104.04444444444445)"/><use xlink:href="#G" transform="matrix(1,0,0,1,440,902.0999999999999) translate(166.5308641975309 104.04444444444445)"/><use xlink:href="#H" transform="matrix(1,0,0,1,440,902.0999999999999) translate(142.99444444444447 128.3111111111111)"/><use xlink:href="#I" transform="matrix(1,0,0,1,440,902.0999999999999) translate(155.2962962962963 128.3111111111111)"/><path d="M765.37 761.6c0 60.75-48.2 110-107.67 110s-107.67-49.25-107.67-110 48.2-110 107.67-110 107.67 49.25 107.67 110z" stroke="#000" stroke-opacity="0" stroke-width="2" fill="#0d1431"/><use xlink:href="#J" transform="matrix(1,0,0,1,555.0263766789157,656.6) translate(37.934320987654324 81.80277777777778)"/><use xlink:href="#K" transform="matrix(1,0,0,1,555.0263766789157,656.6) translate(152.5269135802469 81.80277777777778)"/><use xlink:href="#L" transform="matrix(1,0,0,1,555.0263766789157,656.6) translate(103 106.06944444444444)"/><use xlink:href="#M" transform="matrix(1,0,0,1,555.0263766789157,656.6) translate(7.9330246913580424 130.3361111111111)"/><use xlink:href="#N" transform="matrix(1,0,0,1,555.0263766789157,656.6) translate(118.98672839506172 130.3361111111111)"/><path d="M1822.83 761.6c0 60.75-48.2 110-107.67 110-59.46 0-107.67-49.25-107.67-110s48.2-110 107.66-110c59.47 0 107.67 49.25 107.67 110z" stroke="#000" stroke-opacity="0" stroke-width="2" fill="#0d1431"/><use xlink:href="#J" transform="matrix(1,0,0,1,1612.4881813081822,656.6) translate(37.934320987654324 81.80277777777778)"/><use xlink:href="#O" transform="matrix(1,0,0,1,1612.4881813081822,656.6) translate(152.5269135802469 81.80277777777778)"/><use xlink:href="#L" transform="matrix(1,0,0,1,1612.4881813081822,656.6) translate(103 106.06944444444444)"/><use xlink:href="#P" transform="matrix(1,0,0,1,1612.4881813081822,656.6) translate(39.05277777777778 130.3361111111111)"/><use xlink:href="#Q" transform="matrix(1,0,0,1,1612.4881813081822,656.6) translate(133.36697530864197 130.3361111111111)"/><path d="M510.87 1131.6h293.66v120H510.87z" stroke="#000" stroke-opacity="0" stroke-width="2" fill="#ff4757"/><use xlink:href="#R" transform="matrix(1,0,0,1,515.8724418024935,1136.6) translate(60.15617283950618 33.36527777777778)"/><use xlink:href="#S" transform="matrix(1,0,0,1,515.8724418024935,1136.6) translate(149.8641975308642 33.36527777777778)"/><use xlink:href="#L" transform="matrix(1,0,0,1,515.8724418024935,1136.6) translate(142 57.63194444444444)"/><use xlink:href="#T" transform="matrix(1,0,0,1,515.8724418024935,1136.6) translate(28.137654320987664 81.89861111111111)"/><use xlink:href="#U" transform="matrix(1,0,0,1,515.8724418024935,1136.6) translate(102.9037037037037 81.89861111111111)"/><use xlink:href="#V" transform="matrix(1,0,0,1,515.8724418024935,1136.6) translate(164.9746913580247 81.89861111111111)"/><path d="M657.7 1130.6V890.1" stroke="#000" stroke-width="2" fill="none"/><path d="M658.7 1131.6h-2v-1.03h2z"/><path d="M657.7 874.84l4.63 14.26h-9.27z" stroke="#000" stroke-width="2"/><path d="M1263.9 452.6c28.12 0 50.9 22.16 50.9 49.5s-22.78 49.5-50.9 49.5h-152.7c-28.1 0-50.9-22.16-50.9-49.5s22.8-49.5 50.9-49.5z" stroke="#000" stroke-opacity="0" stroke-width="2" fill="#ff843c"/><use xlink:href="#W" transform="matrix(1,0,0,1,1065.3102485502375,457.60008003344126) translate(75.65185185185186 49.55277777777778)"/><path d="M820.3 150.6l47.76-79h95.54l47.77 79-47.77 79h-95.54z" stroke="#000" stroke-opacity="0" stroke-width="2" fill="#ff4757"/><use xlink:href="#X" transform="matrix(1,0,0,1,825.2966277577702,76.59999999999991) translate(52.0266049382716 53.17777777777778)"/><use xlink:href="#Y" transform="matrix(1,0,0,1,825.2966277577702,76.59999999999991) translate(90.50500000000001 77.44444444444444)"/><use xlink:href="#Z" transform="matrix(1,0,0,1,825.2966277577702,76.59999999999991) translate(51.83000000000001 101.71111111111111)"/><use xlink:href="#aa" transform="matrix(1,0,0,1,825.2966277577702,76.59999999999991) translate(79.80407407407408 101.71111111111111)"/><path d="M1187.56 451.6V341.1H915.83v-93" stroke="#000" stroke-width="2" fill="none"/><path d="M1188.56 452.6h-2v-1.03h2z"/><path d="M915.83 232.84l4.64 14.26h-9.27z" stroke="#000" stroke-width="2"/><path d="M742 251.6h156.6v79H742z" fill="none"/><g><use xlink:href="#ab" transform="matrix(1,0,0,1,741.9887580049259,251.5999999999999) translate(11.175308641975334 31.91111111111111)"/><use xlink:href="#ac" transform="matrix(1,0,0,1,741.9887580049259,251.5999999999999) translate(82.90802469135804 31.91111111111111)"/><use xlink:href="#ad" transform="matrix(1,0,0,1,741.9887580049259,251.5999999999999) translate(70.21296296296296 56.17777777777778)"/><use xlink:href="#ae" transform="matrix(1,0,0,1,741.9887580049259,251.5999999999999) translate(101.61358024691359 56.17777777777778)"/></g><path d="M1564.8 1259.62c2.3 1.2 7.28 2.6 11.87 2.6 11.5 0 16.08-5.7 16.08-11.92 0-5.52-3.06-8.97-10.34-11.3-4.58-1.47-6.88-2.16-6.88-4.14 0-1.56 1.92-2.5 4.6-2.5 3.44 0 6.12.6 9.2 1.9l2.28-8.12c-3.83-1.55-7.27-2.15-11.1-2.07-9.2 0-15.3 4.92-15.3 11.56 0 6.4 4.96 9.67 11.1 11.4 4.58 1.2 6.1 2.24 6.1 3.88 0 1.82-1.52 2.94-4.96 2.94-3.83-.1-6.9-.86-10.34-2.6zm35.22 1.9h9.96v-11.05l3.44-4.14 8.8 15.2h11.88l-13.4-21.32 12.63-15.44h-12.63l-8.04 11.65c-.77 1.22-1.53 2.5-2.3 3.8h-.38v-15.44h-9.96v36.76zm39.05 0h9.96v-13.72h1.9c3.46 0 5 .86 6.14 5.35 1.15 4.74 1.9 7.25 2.68 8.37h10.33c-.76-1.38-1.9-6.82-3.44-10.6-.77-3.03-2.3-5.45-4.6-6.5v-.16c2.68-.86 6.5-3.97 6.5-8.88 0-3.7-1.52-6.4-3.82-8.03-2.68-2.07-6.9-2.93-13-2.93-4.22 0-8.05.17-12.65.86v36.24zm9.96-29.34c1.53-.26 2.68-.26 3.83-.26 3.44 0 5.74 1.47 5.74 4.23 0 2.76-2.68 4.4-6.5 4.4h-3.07v-8.37z" stroke="#000" stroke-opacity="0" stroke-width=".93" fill="#0d1431"/><path d="M1698.03 1252.55l2.68 8.97h11.1l-12.24-36.76h-13.78l-11.1 36.76H1685l2.3-8.97h10.73zm-9.2-7.5l1.93-6.48c.38-2.07 1.15-4.75 1.53-6.9.75 2.15 1.52 4.83 2.3 6.9l1.9 6.47h-7.66zm29.5 16.47h9.94v-12.25c.77 0 1.54.17 2.68.17 5.75 0 9.96-1.3 13.02-4.06 2.3-2.07 3.45-5.43 3.45-8.97.38-3.7-1.15-6.9-4.2-9.05-2.7-1.8-6.14-2.93-11.5-2.93-4.98-.1-8.8.17-13.4.77v36.32zm9.94-29.25c1.15-.17 2.3-.26 3.45-.17 3.83 0 5.74 1.72 5.74 4.4 0 3.28-2.68 5.1-6.5 5.1-.77 0-1.54 0-2.7-.18v-9.15z" stroke="#000" stroke-opacity="0" stroke-width=".93" fill="#ff4757"/><path d="M1753.92 1244.52v6.56h15.7v-6.56h-15.7z" stroke="#000" stroke-opacity="0" stroke-width=".93" fill="#0d1431"/><path d="M1776.9 1224.76v36.76h9.95v-36.76h-9.96z" stroke="#000" stroke-opacity="0" stroke-width=".93" fill="#ff4757"/><path d="M1802.54 1261.52h9.96v-28.4h10.33v-8.36h-30.62v8.37h10.34v28.4z" stroke="#000" stroke-opacity="0" stroke-width=".93" fill="#0d1431"/><path d="M1467.56 1227.96h29.48v30.2h-29.48v-30.2z" stroke="#000" stroke-opacity="0" stroke-width=".93" fill="#fff"/><path d="M1451.5 1211.65h4.58v62.8h-4.6v-62.8z" stroke="#000" stroke-opacity="0" stroke-width=".93" fill="#ff4757"/><path d="M1451.5 1269.63h61.24v4.83h-61.25v-4.83zM1440 1223.55h11.5v4.75H1440v-4.75zM1444.6 1240.72h6.9v4.92h-6.9v-4.92zM1440 1257.98h11.5v4.92H1440v-4.92z" stroke="#000" stroke-opacity="0" stroke-width=".93" fill="#ff4757"/><path d="M1462.6 1274.37h4.96v11.74h-4.97v-11.73zM1479.8 1274.46h4.6v7.08h-4.6v-7.08zM1496.66 1274.46h4.98v11.82h-4.98v-11.82zM1451.5 1211.65h20.66v4.74h-20.67v-4.75z" stroke="#000" stroke-opacity="0" stroke-width=".93" fill="#ff4757"/><path d="M1467.18 1200h4.98v16.4h-4.98V1200z" stroke="#000" stroke-opacity="0" stroke-width=".93" fill="#ff4757"/><path d="M1478.67 1204.75h4.97v11.64h-4.97v-11.65z" stroke="#000" stroke-opacity="0" stroke-width=".93" fill="#0d1431"/><path d="M1478.67 1211.65h34.07v4.74h-34.07v-4.75z" stroke="#000" stroke-opacity="0" stroke-width=".93" fill="#0d1431"/><path d="M1508.14 1216.22h4.6v46.68h-4.6v-46.68zM1512.74 1223.55h11.48v4.75h-11.48v-4.75zM1512.74 1240.72h6.9v4.92h-6.9v-4.92zM1512.74 1257.98h11.48v4.92h-11.48v-4.92zM1492.07 1200h4.97v16.4h-4.97V1200zM1497.04 1223.2h4.6v39.7h-4.6v-39.7z" stroke="#000" stroke-opacity="0" stroke-width=".93" fill="#0d1431"/><path d="M1462.6 1223.2h39.04v4.76h-39.05v-4.75z" stroke="#000" stroke-opacity="0" stroke-width=".93" fill="#0d1431"/><path d="M1462.6 1223.3l4.96 4.66v34.94h-4.97v-39.6z" stroke="#000" stroke-opacity="0" stroke-width=".93" fill="#ff4757"/><path d="M1501.64 1262.9l-4.6-4.75h-34.45v4.75h39.04z" stroke="#000" stroke-opacity="0" stroke-width=".93" fill="#ff4757"/><path d="M657.7 650.6V502.1h384.1" stroke="#000" stroke-width="2" fill="none"/><path d="M658.7 651.62l-1-.02h-1v-1.03h2z"/><path d="M1057.07 502.1l-14.26 4.64v-9.28z" stroke="#000" stroke-width="2"/><path d="M1715.16 633.1v-131H1333.3" stroke="#000" stroke-width="2" fill="none"/><path d="M1715.16 648.36l-4.63-14.26h9.27zM1318.05 502.1l14.26-4.64v9.28z" stroke="#000" stroke-width="2"/><path d="M1368.45 150.6l47.77-79h95.54l47.76 79-47.76 79h-95.54z" stroke="#000" stroke-opacity="0" stroke-width="2" fill="#ff4757"/><g><use xlink:href="#af" transform="matrix(1,0,0,1,1373.4517160276798,76.59999999999991) translate(73.68123456790124 76.30277777777778)"/></g><path d="M1187.56 451.6V341.1H1464v-93" stroke="#000" stroke-width="2" fill="none"/><path d="M1188.56 452.6h-2v-1.03h2z"/><path d="M1464 232.84l4.62 14.26h-9.27z" stroke="#000" stroke-width="2"/><path d="M1485.9 251.6H1760v79h-274.1z" fill="none"/><g><use xlink:href="#ag" transform="matrix(1,0,0,1,1485.9135206569463,251.5999999999999) translate(0 31.91111111111111)"/><use xlink:href="#ah" transform="matrix(1,0,0,1,1485.9135206569463,251.5999999999999) translate(81.45061728395059 31.91111111111111)"/><use xlink:href="#ai" transform="matrix(1,0,0,1,1485.9135206569463,251.5999999999999) translate(181.38209876543206 31.91111111111111)"/><use xlink:href="#aj" transform="matrix(1,0,0,1,1485.9135206569463,251.5999999999999) translate(0 56.17777777777778)"/></g><path d="M1333.4 722.1h254.5v79h-254.5z" fill="none"/><g><use xlink:href="#ak" transform="matrix(1,0,0,1,1333.410637173227,722.0999599832794) translate(30.64567901234568 31.91111111111111)"/><use xlink:href="#al" transform="matrix(1,0,0,1,1333.410637173227,722.0999599832794) translate(105.80493827160493 31.91111111111111)"/><use xlink:href="#am" transform="matrix(1,0,0,1,1333.410637173227,722.0999599832794) translate(150.7432098765432 31.91111111111111)"/><use xlink:href="#t" transform="matrix(1,0,0,1,1333.410637173227,722.0999599832794) translate(179.89691358024692 31.91111111111111)"/><use xlink:href="#an" transform="matrix(1,0,0,1,1333.410637173227,722.0999599832794) translate(205.6240740740741 31.91111111111111)"/><use xlink:href="#v" transform="matrix(1,0,0,1,1333.410637173227,722.0999599832794) translate(97.88456790123459 56.17777777777778)"/><use xlink:href="#ao" transform="matrix(1,0,0,1,1333.410637173227,722.0999599832794) translate(137.20555555555558 56.17777777777778)"/></g><defs><path d="M169-182c-1-43-94-46-97-3 18 66 151 10 154 114 3 95-165 93-204 36-6-8-10-19-12-30l50-8c3 46 112 56 116 5-17-69-150-10-154-114-4-87 153-88 188-35 5 8 8 18 10 28" id="ap"/><path d="M115-3C79 11 28 4 28-45v-112H4v-33h27l15-45h31v45h36v33H77v99c-1 23 16 31 38 25v30" id="aq"/><path d="M110-194c64 0 96 36 96 99 0 64-35 99-97 99-61 0-95-36-95-99 0-62 34-99 96-99zm-1 164c35 0 45-28 45-65 0-40-10-65-43-65-34 0-45 26-45 65 0 36 10 65 43 65" id="ar"/><path d="M135-150c-39-12-60 13-60 57V0H25l-1-190h47c2 13-1 29 3 40 6-28 27-53 61-41v41" id="as"/><path d="M185-48c-13 30-37 53-82 52C43 2 14-33 14-96s30-98 90-98c62 0 83 45 84 108H66c0 31 8 55 39 56 18 0 30-7 34-22zm-45-69c5-46-57-63-70-21-2 6-4 13-4 21h74" id="at"/><g id="a"><use transform="matrix(0.056172839506172835,0,0,0.056172839506172835,0,0)" xlink:href="#ap"/><use transform="matrix(0.056172839506172835,0,0,0.056172839506172835,13.481481481481481,0)" xlink:href="#aq"/><use transform="matrix(0.056172839506172835,0,0,0.056172839506172835,20.166049382716047,0)" xlink:href="#ar"/><use transform="matrix(0.056172839506172835,0,0,0.056172839506172835,32.4679012345679,0)" xlink:href="#as"/><use transform="matrix(0.056172839506172835,0,0,0.056172839506172835,40.33209876543209,0)" xlink:href="#at"/></g><path d="M133-34C117-15 103 5 69 4 32 3 11-16 11-54c-1-60 55-63 116-61 1-26-3-47-28-47-18 1-26 9-28 27l-52-2c7-38 36-58 82-57s74 22 75 68l1 82c-1 14 12 18 25 15v27c-30 8-71 5-69-32zm-48 3c29 0 43-24 42-57-32 0-66-3-65 30 0 17 8 27 23 27" id="au"/><path d="M25 0v-261h50V0H25" id="av"/><g id="b"><use transform="matrix(0.056172839506172835,0,0,0.056172839506172835,0,0)" xlink:href="#au"/><use transform="matrix(0.056172839506172835,0,0,0.056172839506172835,11.234567901234566,0)" xlink:href="#av"/><use transform="matrix(0.056172839506172835,0,0,0.056172839506172835,16.851851851851848,0)" xlink:href="#av"/></g><path d="M190-63c-7 42-38 67-86 67-59 0-84-38-90-98-12-110 154-137 174-36l-49 2c-2-19-15-32-35-32-30 0-35 28-38 64-6 74 65 87 74 30" id="aw"/><path d="M135-194c53 0 70 44 70 98 0 56-19 98-73 100-31 1-45-17-59-34 3 33 2 69 2 105H25l-1-265h48c2 10 0 23 3 31 11-24 29-35 60-35zM114-30c33 0 39-31 40-66 0-38-9-64-40-64-56 0-55 130 0 130" id="ax"/><path d="M85 4C-2 5 27-109 22-190h50c7 57-23 150 33 157 60-5 35-97 40-157h50l1 190h-47c-2-12 1-28-3-38-12 25-28 42-61 42" id="ay"/><path d="M137-138c1-29-70-34-71-4 15 46 118 7 119 86 1 83-164 76-172 9l43-7c4 19 20 25 44 25 33 8 57-30 24-41C81-84 22-81 20-136c-2-80 154-74 161-7" id="az"/><g id="c"><use transform="matrix(0.056172839506172835,0,0,0.056172839506172835,0,0)" xlink:href="#aw"/><use transform="matrix(0.056172839506172835,0,0,0.056172839506172835,11.234567901234566,0)" xlink:href="#ax"/><use transform="matrix(0.056172839506172835,0,0,0.056172839506172835,23.536419753086417,0)" xlink:href="#ay"/><use transform="matrix(0.056172839506172835,0,0,0.056172839506172835,35.83827160493827,0)" xlink:href="#az"/></g><path d="M135-194c87-1 58 113 63 194h-50c-7-57 23-157-34-157-59 0-34 97-39 157H25l-1-190h47c2 12-1 28 3 38 12-26 28-41 61-42" id="aA"/><path d="M220-157c-53 9-28 100-34 157h-49v-107c1-27-5-49-29-50C55-147 81-57 75 0H25l-1-190h47c2 12-1 28 3 38 10-53 101-56 108 0 13-22 24-43 59-42 82 1 51 116 57 194h-49v-107c-1-25-5-48-29-50" id="aB"/><path d="M135-194c52 0 70 43 70 98 0 56-19 99-73 100-30 1-46-15-58-35L72 0H24l1-261h50v104c11-23 29-37 60-37zM114-30c31 0 40-27 40-66 0-37-7-63-39-63s-41 28-41 65c0 36 8 64 40 64" id="aC"/><g id="d"><use transform="matrix(0.056172839506172835,0,0,0.056172839506172835,0,0)" xlink:href="#aA"/><use transform="matrix(0.056172839506172835,0,0,0.056172839506172835,12.30185185185185,0)" xlink:href="#ay"/><use transform="matrix(0.056172839506172835,0,0,0.056172839506172835,24.6037037037037,0)" xlink:href="#aB"/><use transform="matrix(0.056172839506172835,0,0,0.056172839506172835,42.579012345679004,0)" xlink:href="#aC"/><use transform="matrix(0.056172839506172835,0,0,0.056172839506172835,54.880864197530855,0)" xlink:href="#at"/><use transform="matrix(0.056172839506172835,0,0,0.056172839506172835,66.11543209876542,0)" xlink:href="#as"/><use transform="matrix(0.056172839506172835,0,0,0.056172839506172835,73.97962962962963,0)" xlink:href="#az"/></g><path d="M121-226c-27-7-43 5-38 36h38v33H83V0H34v-157H6v-33h28c-9-59 32-81 87-68v32" id="aD"/><g id="e"><use transform="matrix(0.056172839506172835,0,0,0.056172839506172835,0,0)" xlink:href="#aD"/><use transform="matrix(0.056172839506172835,0,0,0.056172839506172835,6.684567901234567,0)" xlink:href="#ar"/><use transform="matrix(0.056172839506172835,0,0,0.056172839506172835,18.986419753086416,0)" xlink:href="#as"/></g><path d="M128 0H69L1-190h53L99-40l48-150h52" id="aE"/><path d="M123 10C108 53 80 86 19 72V37c35 8 53-11 59-39L3-190h52l48 148c12-52 28-100 44-148h51" id="aF"/><g id="f"><use transform="matrix(0.056172839506172835,0,0,0.056172839506172835,0,0)" xlink:href="#at"/><use transform="matrix(0.056172839506172835,0,0,0.056172839506172835,11.234567901234566,0)" xlink:href="#aE"/><use transform="matrix(0.056172839506172835,0,0,0.056172839506172835,22.469135802469133,0)" xlink:href="#at"/><use transform="matrix(0.056172839506172835,0,0,0.056172839506172835,33.703703703703695,0)" xlink:href="#as"/><use transform="matrix(0.056172839506172835,0,0,0.056172839506172835,41.56790123456789,0)" xlink:href="#aF"/></g><path d="M114-157C55-157 80-60 75 0H25v-261h50l-1 109c12-26 28-41 61-42 86-1 58 113 63 194h-50c-7-57 23-157-34-157" id="aG"/><path d="M147 0L96-86 75-71V0H25v-261h50v150l67-79h53l-66 74L201 0h-54" id="aH"/><g id="g"><use transform="matrix(0.056172839506172835,0,0,0.056172839506172835,0,0)" xlink:href="#aw"/><use transform="matrix(0.056172839506172835,0,0,0.056172839506172835,11.234567901234566,0)" xlink:href="#aG"/><use transform="matrix(0.056172839506172835,0,0,0.056172839506172835,23.536419753086417,0)" xlink:href="#at"/><use transform="matrix(0.056172839506172835,0,0,0.056172839506172835,34.77098765432098,0)" xlink:href="#aw"/><use transform="matrix(0.056172839506172835,0,0,0.056172839506172835,46.005555555555546,0)" xlink:href="#aH"/></g><path d="M33 0v-248h34V0H33" id="aI"/><path d="M101-234c-31-9-42 10-38 44h38v23H63V0H32v-167H5v-23h27c-7-52 17-82 69-68v24" id="aJ"/><g id="i"><use transform="matrix(0.056172839506172835,0,0,0.056172839506172835,0,0)" xlink:href="#aI"/><use transform="matrix(0.056172839506172835,0,0,0.056172839506172835,5.617283950617283,0)" xlink:href="#aJ"/></g><path d="M59-47c-2 24 18 29 38 22v24C64 9 27 4 27-40v-127H5v-23h24l9-43h21v43h35v23H59v120" id="aK"/><path d="M106-169C34-169 62-67 57 0H25v-261h32l-1 103c12-21 28-36 61-36 89 0 53 116 60 194h-32v-121c2-32-8-49-39-48" id="aL"/><path d="M100-194c63 0 86 42 84 106H49c0 40 14 67 53 68 26 1 43-12 49-29l28 8c-11 28-37 45-77 45C44 4 14-33 15-96c1-61 26-98 85-98zm52 81c6-60-76-77-97-28-3 7-6 17-6 28h103" id="aM"/><g id="j"><use transform="matrix(0.056172839506172835,0,0,0.056172839506172835,0,0)" xlink:href="#aK"/><use transform="matrix(0.056172839506172835,0,0,0.056172839506172835,5.617283950617283,0)" xlink:href="#aL"/><use transform="matrix(0.056172839506172835,0,0,0.056172839506172835,16.851851851851848,0)" xlink:href="#aM"/></g><path d="M117-194c89-4 53 116 60 194h-32v-121c0-31-8-49-39-48C34-167 62-67 57 0H25l-1-190h30c1 10-1 24 2 32 11-22 29-35 61-36" id="aN"/><path d="M84 4C-5 8 30-112 23-190h32v120c0 31 7 50 39 49 72-2 45-101 50-169h31l1 190h-30c-1-10 1-25-2-33-11 22-28 36-60 37" id="aO"/><path d="M210-169c-67 3-38 105-44 169h-31v-121c0-29-5-50-35-48C34-165 62-65 56 0H25l-1-190h30c1 10-1 24 2 32 10-44 99-50 107 0 11-21 27-35 58-36 85-2 47 119 55 194h-31v-121c0-29-5-49-35-48" id="aP"/><path d="M115-194c53 0 69 39 70 98 0 66-23 100-70 100C84 3 66-7 56-30L54 0H23l1-261h32v101c10-23 28-34 59-34zm-8 174c40 0 45-34 45-75 0-40-5-75-45-74-42 0-51 32-51 76 0 43 10 73 51 73" id="aQ"/><path d="M114-163C36-179 61-72 57 0H25l-1-190h30c1 12-1 29 2 39 6-27 23-49 58-41v29" id="aR"/><path d="M135-143c-3-34-86-38-87 0 15 53 115 12 119 90S17 21 10-45l28-5c4 36 97 45 98 0-10-56-113-15-118-90-4-57 82-63 122-42 12 7 21 19 24 35" id="aS"/><g id="k"><use transform="matrix(0.056172839506172835,0,0,0.056172839506172835,0,0)" xlink:href="#aN"/><use transform="matrix(0.056172839506172835,0,0,0.056172839506172835,11.234567901234566,0)" xlink:href="#aO"/><use transform="matrix(0.056172839506172835,0,0,0.056172839506172835,22.469135802469133,0)" xlink:href="#aP"/><use transform="matrix(0.056172839506172835,0,0,0.056172839506172835,39.26481481481481,0)" xlink:href="#aQ"/><use transform="matrix(0.056172839506172835,0,0,0.056172839506172835,50.49938271604938,0)" xlink:href="#aM"/><use transform="matrix(0.056172839506172835,0,0,0.056172839506172835,61.73395061728396,0)" xlink:href="#aR"/><use transform="matrix(0.056172839506172835,0,0,0.056172839506172835,68.41851851851852,0)" xlink:href="#aS"/></g><path d="M96-169c-40 0-48 33-48 73s9 75 48 75c24 0 41-14 43-38l32 2c-6 37-31 61-74 61-59 0-76-41-82-99-10-93 101-131 147-64 4 7 5 14 7 22l-32 3c-4-21-16-35-41-35" id="aT"/><path d="M141-36C126-15 110 5 73 4 37 3 15-17 15-53c-1-64 63-63 125-63 3-35-9-54-41-54-24 1-41 7-42 31l-33-3c5-37 33-52 76-52 45 0 72 20 72 64v82c-1 20 7 32 28 27v20c-31 9-61-2-59-35zM48-53c0 20 12 33 32 33 41-3 63-29 60-74-43 2-92-5-92 41" id="aU"/><path d="M177-190C167-65 218 103 67 71c-23-6-38-20-44-43l32-5c15 47 100 32 89-28v-30C133-14 115 1 83 1 29 1 15-40 15-95c0-56 16-97 71-98 29-1 48 16 59 35 1-10 0-23 2-32h30zM94-22c36 0 50-32 50-73 0-42-14-75-50-75-39 0-46 34-46 75s6 73 46 73" id="aV"/><g id="l"><use transform="matrix(0.056172839506172835,0,0,0.056172839506172835,0,0)" xlink:href="#aT"/><use transform="matrix(0.056172839506172835,0,0,0.056172839506172835,10.11111111111111,0)" xlink:href="#aL"/><use transform="matrix(0.056172839506172835,0,0,0.056172839506172835,21.345679012345677,0)" xlink:href="#aU"/><use transform="matrix(0.056172839506172835,0,0,0.056172839506172835,32.58024691358024,0)" xlink:href="#aN"/><use transform="matrix(0.056172839506172835,0,0,0.056172839506172835,43.81481481481481,0)" xlink:href="#aV"/><use transform="matrix(0.056172839506172835,0,0,0.056172839506172835,55.04938271604938,0)" xlink:href="#aM"/></g><path d="M33-154v-36h34v36H33zM33 0v-36h34V0H33" id="aW"/><use transform="matrix(0.056172839506172835,0,0,0.056172839506172835,0,0)" xlink:href="#aW" id="m"/><path d="M27 0v-27h64v-190l-56 39v-29l58-41h29v221h61V0H27" id="aX"/><path d="M33-261c38 41 65 92 65 168S71 34 33 75H2C39 34 66-17 66-93S39-220 2-261h31" id="aY"/><g id="n"><use transform="matrix(0.056172839506172835,0,0,0.056172839506172835,0,0)" xlink:href="#aX"/><use transform="matrix(0.056172839506172835,0,0,0.056172839506172835,11.234567901234566,0)" xlink:href="#aY"/></g><path d="M85-194c31 0 48 13 60 33l-1-100h32l1 261h-30c-2-10 0-23-3-31C134-8 116 4 85 4 32 4 16-35 15-94c0-66 23-100 70-100zm9 24c-40 0-46 34-46 75 0 40 6 74 45 74 42 0 51-32 51-76 0-42-9-74-50-73" id="aZ"/><path d="M115-194c55 1 70 41 70 98S169 2 115 4C84 4 66-9 55-30l1 105H24l-1-265h31l2 30c10-21 28-34 59-34zm-8 174c40 0 45-34 45-75s-6-73-45-74c-42 0-51 32-51 76 0 43 10 73 51 73" id="ba"/><g id="o"><use transform="matrix(0.056172839506172835,0,0,0.056172839506172835,0,0)" xlink:href="#aZ"/><use transform="matrix(0.056172839506172835,0,0,0.056172839506172835,11.234567901234566,0)" xlink:href="#aO"/><use transform="matrix(0.056172839506172835,0,0,0.056172839506172835,22.469135802469133,0)" xlink:href="#aP"/><use transform="matrix(0.056172839506172835,0,0,0.056172839506172835,39.26481481481481,0)" xlink:href="#ba"/></g><path d="M24 0v-261h32V0H24" id="bb"/><g id="p"><use transform="matrix(0.056172839506172835,0,0,0.056172839506172835,0,0)" xlink:href="#aU"/><use transform="matrix(0.056172839506172835,0,0,0.056172839506172835,11.234567901234566,0)" xlink:href="#aT"/><use transform="matrix(0.056172839506172835,0,0,0.056172839506172835,21.345679012345677,0)" xlink:href="#aK"/><use transform="matrix(0.056172839506172835,0,0,0.056172839506172835,26.962962962962962,0)" xlink:href="#aO"/><use transform="matrix(0.056172839506172835,0,0,0.056172839506172835,38.19753086419753,0)" xlink:href="#aU"/><use transform="matrix(0.056172839506172835,0,0,0.056172839506172835,49.4320987654321,0)" xlink:href="#bb"/></g><g id="q"><use transform="matrix(0.056172839506172835,0,0,0.056172839506172835,0,0)" xlink:href="#aZ"/><use transform="matrix(0.056172839506172835,0,0,0.056172839506172835,11.234567901234566,0)" xlink:href="#aU"/><use transform="matrix(0.056172839506172835,0,0,0.056172839506172835,22.469135802469133,0)" xlink:href="#aK"/><use transform="matrix(0.056172839506172835,0,0,0.056172839506172835,28.086419753086417,0)" xlink:href="#aU"/><use transform="matrix(0.056172839506172835,0,0,0.056172839506172835,39.32098765432099,0)" xlink:href="#aQ"/><use transform="matrix(0.056172839506172835,0,0,0.056172839506172835,50.55555555555556,0)" xlink:href="#aU"/><use transform="matrix(0.056172839506172835,0,0,0.056172839506172835,61.790123456790134,0)" xlink:href="#aS"/><use transform="matrix(0.056172839506172835,0,0,0.056172839506172835,71.90123456790124,0)" xlink:href="#aM"/></g><path d="M101-251c82-7 93 87 43 132L82-64C71-53 59-42 53-27h129V0H18c2-99 128-94 128-182 0-28-16-43-45-43s-46 15-49 41l-32-3c6-41 34-60 81-64" id="bc"/><g id="r"><use transform="matrix(0.056172839506172835,0,0,0.056172839506172835,0,0)" xlink:href="#bc"/><use transform="matrix(0.056172839506172835,0,0,0.056172839506172835,11.234567901234566,0)" xlink:href="#aY"/></g><g id="s"><use transform="matrix(0.056172839506172835,0,0,0.056172839506172835,0,0)" xlink:href="#aS"/><use transform="matrix(0.056172839506172835,0,0,0.056172839506172835,10.11111111111111,0)" xlink:href="#aT"/><use transform="matrix(0.056172839506172835,0,0,0.056172839506172835,20.22222222222222,0)" xlink:href="#aR"/><use transform="matrix(0.056172839506172835,0,0,0.056172839506172835,26.906790123456787,0)" xlink:href="#aU"/><use transform="matrix(0.056172839506172835,0,0,0.056172839506172835,38.14135802469136,0)" xlink:href="#ba"/></g><g id="t"><use transform="matrix(0.056172839506172835,0,0,0.056172839506172835,0,0)" xlink:href="#aU"/><use transform="matrix(0.056172839506172835,0,0,0.056172839506172835,11.234567901234566,0)" xlink:href="#bb"/><use transform="matrix(0.056172839506172835,0,0,0.056172839506172835,15.67222222222222,0)" xlink:href="#bb"/></g><path d="M24-231v-30h32v30H24zM24 0v-190h32V0H24" id="bd"/><path d="M143 0L79-87 56-68V0H24v-261h32v163l83-92h37l-77 82L181 0h-38" id="be"/><g id="u"><use transform="matrix(0.056172839506172835,0,0,0.056172839506172835,0,0)" xlink:href="#bb"/><use transform="matrix(0.056172839506172835,0,0,0.056172839506172835,4.4376543209876536,0)" xlink:href="#bd"/><use transform="matrix(0.056172839506172835,0,0,0.056172839506172835,8.875308641975307,0)" xlink:href="#aN"/><use transform="matrix(0.056172839506172835,0,0,0.056172839506172835,20.10987654320987,0)" xlink:href="#be"/><use transform="matrix(0.056172839506172835,0,0,0.056172839506172835,30.220987654320986,0)" xlink:href="#aS"/></g><g id="v"><use transform="matrix(0.056172839506172835,0,0,0.056172839506172835,0,0)" xlink:href="#aU"/><use transform="matrix(0.056172839506172835,0,0,0.056172839506172835,11.234567901234566,0)" xlink:href="#aN"/><use transform="matrix(0.056172839506172835,0,0,0.056172839506172835,22.469135802469133,0)" xlink:href="#aZ"/></g><path d="M100-194c62-1 85 37 85 99 1 63-27 99-86 99S16-35 15-95c0-66 28-99 85-99zM99-20c44 1 53-31 53-75 0-43-8-75-51-75s-53 32-53 75 10 74 51 75" id="bf"/><g id="w"><use transform="matrix(0.056172839506172835,0,0,0.056172839506172835,0,0)" xlink:href="#aS"/><use transform="matrix(0.056172839506172835,0,0,0.056172839506172835,10.11111111111111,0)" xlink:href="#aK"/><use transform="matrix(0.056172839506172835,0,0,0.056172839506172835,15.728395061728394,0)" xlink:href="#bf"/><use transform="matrix(0.056172839506172835,0,0,0.056172839506172835,26.962962962962962,0)" xlink:href="#aR"/><use transform="matrix(0.056172839506172835,0,0,0.056172839506172835,33.64753086419753,0)" xlink:href="#aM"/></g><path d="M206 0h-36l-40-164L89 0H53L-1-190h32L70-26l43-164h34l41 164 42-164h31" id="bg"/><g id="x"><use transform="matrix(0.056172839506172835,0,0,0.056172839506172835,0,0)" xlink:href="#aN"/><use transform="matrix(0.056172839506172835,0,0,0.056172839506172835,11.234567901234566,0)" xlink:href="#aM"/><use transform="matrix(0.056172839506172835,0,0,0.056172839506172835,22.469135802469133,0)" xlink:href="#bg"/></g><path d="M108 0H70L1-190h34L89-25l56-165h34" id="bh"/><g id="y"><use transform="matrix(0.056172839506172835,0,0,0.056172839506172835,0,0)" xlink:href="#bh"/><use transform="matrix(0.056172839506172835,0,0,0.056172839506172835,10.11111111111111,0)" xlink:href="#aU"/><use transform="matrix(0.056172839506172835,0,0,0.056172839506172835,21.345679012345677,0)" xlink:href="#bb"/><use transform="matrix(0.056172839506172835,0,0,0.056172839506172835,25.78333333333333,0)" xlink:href="#aO"/><use transform="matrix(0.056172839506172835,0,0,0.056172839506172835,37.0179012345679,0)" xlink:href="#aM"/><use transform="matrix(0.056172839506172835,0,0,0.056172839506172835,48.25246913580247,0)" xlink:href="#aS"/></g><g id="A"><use transform="matrix(0.056172839506172835,0,0,0.056172839506172835,0,0)" xlink:href="#aw"/><use transform="matrix(0.056172839506172835,0,0,0.056172839506172835,11.234567901234566,0)" xlink:href="#as"/><use transform="matrix(0.056172839506172835,0,0,0.056172839506172835,19.098765432098762,0)" xlink:href="#ar"/><use transform="matrix(0.056172839506172835,0,0,0.056172839506172835,31.400617283950616,0)" xlink:href="#aA"/></g><path d="M182-182c0 78-84 86-111 141h115V0H12c-6-101 99-100 120-180 1-22-12-31-33-32-23 0-32 14-35 34l-49-3c5-45 32-70 84-70 51 0 83 22 83 69" id="bi"/><path d="M144 0l-44-69L55 0H2l70-98-66-92h53l41 62 40-62h54l-67 91 71 99h-54" id="bj"/><g id="B"><use transform="matrix(0.056172839506172835,0,0,0.056172839506172835,0,0)" xlink:href="#bi"/><use transform="matrix(0.056172839506172835,0,0,0.056172839506172835,11.234567901234566,0)" xlink:href="#bj"/></g><g id="C"><use transform="matrix(0.056172839506172835,0,0,0.056172839506172835,0,0)" xlink:href="#ax"/><use transform="matrix(0.056172839506172835,0,0,0.056172839506172835,12.30185185185185,0)" xlink:href="#at"/><use transform="matrix(0.056172839506172835,0,0,0.056172839506172835,23.536419753086417,0)" xlink:href="#as"/></g><path d="M88-194c31-1 46 15 58 34l-1-101h50l1 261h-48c-2-10 0-23-3-31C134-8 116 4 84 4 32 4 16-41 15-95c0-56 19-97 73-99zm17 164c33 0 40-30 41-66 1-37-9-64-41-64s-38 30-39 65c0 43 13 65 39 65" id="bk"/><g id="D"><use transform="matrix(0.056172839506172835,0,0,0.056172839506172835,0,0)" xlink:href="#bk"/><use transform="matrix(0.056172839506172835,0,0,0.056172839506172835,12.30185185185185,0)" xlink:href="#au"/><use transform="matrix(0.056172839506172835,0,0,0.056172839506172835,23.536419753086417,0)" xlink:href="#aF"/></g><path d="M67-93c0 74 22 123 53 168H70C40 30 18-18 18-93s22-123 52-168h50c-32 44-53 94-53 168" id="bl"/><path d="M102-93c0 74-22 123-52 168H0C30 29 54-18 53-93c0-74-22-123-53-168h50c30 45 52 94 52 168" id="bm"/><g id="E"><use transform="matrix(0.056172839506172835,0,0,0.056172839506172835,0,0)" xlink:href="#bl"/><use transform="matrix(0.056172839506172835,0,0,0.056172839506172835,6.684567901234567,0)" xlink:href="#aD"/><use transform="matrix(0.056172839506172835,0,0,0.056172839506172835,13.369135802469135,0)" xlink:href="#as"/><use transform="matrix(0.056172839506172835,0,0,0.056172839506172835,21.23333333333333,0)" xlink:href="#bm"/></g><path d="M16-82v-28h88v28H16" id="bn"/><use transform="matrix(0.056172839506172835,0,0,0.056172839506172835,0,0)" xlink:href="#bn" id="F"/><path d="M101-251c68 0 85 55 85 127S166 4 100 4C33 4 14-52 14-124c0-73 17-127 87-127zm-1 229c47 0 54-49 54-102s-4-102-53-102c-51 0-55 48-55 102 0 53 5 102 54 102" id="bo"/><g id="G"><use transform="matrix(0.056172839506172835,0,0,0.056172839506172835,0,0)" xlink:href="#bo"/><use transform="matrix(0.056172839506172835,0,0,0.056172839506172835,11.234567901234566,0)" xlink:href="#aL"/></g><use transform="matrix(0.056172839506172835,0,0,0.056172839506172835,0,0)" xlink:href="#bn" id="H"/><g id="I"><use transform="matrix(0.056172839506172835,0,0,0.056172839506172835,0,0)" xlink:href="#aX"/><use transform="matrix(0.056172839506172835,0,0,0.056172839506172835,11.234567901234566,0)" xlink:href="#bc"/><use transform="matrix(0.056172839506172835,0,0,0.056172839506172835,22.469135802469133,0)" xlink:href="#aL"/></g><path fill="#fff" d="M24-248c120-7 223 5 221 122C244-46 201 0 124 0H24v-248zM76-40c74 7 117-18 117-86 0-67-45-88-117-82v168" id="bp"/><path fill="#fff" d="M199 0l-22-63H83L61 0H9l90-248h61L250 0h-51zm-33-102l-36-108c-10 38-24 72-36 108h72" id="bq"/><path fill="#fff" d="M136-208V0H84v-208H4v-40h212v40h-80" id="br"/><path fill="#fff" d="M182-130c37 4 62 22 62 59C244 23 116-4 24 0v-248c84 5 203-23 205 63 0 31-19 50-47 55zM76-148c40-3 101 13 101-30 0-44-60-28-101-31v61zm0 110c48-3 116 14 116-37 0-48-69-32-116-35v72" id="bs"/><path fill="#fff" d="M169-182c-1-43-94-46-97-3 18 66 151 10 154 114 3 95-165 93-204 36-6-8-10-19-12-30l50-8c3 46 112 56 116 5-17-69-150-10-154-114-4-87 153-88 188-35 5 8 8 18 10 28" id="bt"/><path fill="#fff" d="M24 0v-248h195v40H76v63h132v40H76v65h150V0H24" id="bu"/><g id="J"><use transform="matrix(0.056172839506172835,0,0,0.056172839506172835,0,0)" xlink:href="#bp"/><use transform="matrix(0.056172839506172835,0,0,0.056172839506172835,14.548765432098763,0)" xlink:href="#bq"/><use transform="matrix(0.056172839506172835,0,0,0.056172839506172835,27.580864197530857,0)" xlink:href="#br"/><use transform="matrix(0.056172839506172835,0,0,0.056172839506172835,38.36604938271604,0)" xlink:href="#bq"/><use transform="matrix(0.056172839506172835,0,0,0.056172839506172835,52.914814814814804,0)" xlink:href="#bs"/><use transform="matrix(0.056172839506172835,0,0,0.056172839506172835,67.46358024691357,0)" xlink:href="#bq"/><use transform="matrix(0.056172839506172835,0,0,0.056172839506172835,82.01234567901233,0)" xlink:href="#bt"/><use transform="matrix(0.056172839506172835,0,0,0.056172839506172835,95.49382716049381,0)" xlink:href="#bu"/></g><use transform="matrix(0.056172839506172835,0,0,0.056172839506172835,0,0)" xlink:href="#bq" id="K"/><path fill="#fff" d="M185-189c-5-48-123-54-124 2 14 75 158 14 163 119 3 78-121 87-175 55-17-10-28-26-33-46l33-7c5 56 141 63 141-1 0-78-155-14-162-118-5-82 145-84 179-34 5 7 8 16 11 25" id="bv"/><path fill="#fff" d="M212-179c-10-28-35-45-73-45-59 0-87 40-87 99 0 60 29 101 89 101 43 0 62-24 78-52l27 14C228-24 195 4 139 4 59 4 22-46 18-125c-6-104 99-153 187-111 19 9 31 26 39 46" id="bw"/><path fill="#fff" d="M233-177c-1 41-23 64-60 70L243 0h-38l-65-103H63V0H30v-248c88 3 205-21 203 71zM63-129c60-2 137 13 137-47 0-61-80-42-137-45v92" id="bx"/><path fill="#fff" d="M205 0l-28-72H64L36 0H1l101-248h38L239 0h-34zm-38-99l-47-123c-12 45-31 82-46 123h93" id="by"/><path fill="#fff" d="M30-248c87 1 191-15 191 75 0 78-77 80-158 76V0H30v-248zm33 125c57 0 124 11 124-50 0-59-68-47-124-48v98" id="bz"/><path fill="#fff" d="M33 0v-248h34V0H33" id="bA"/><path fill="#fff" d="M190 0L58-211 59 0H30v-248h39L202-35l-2-213h31V0h-41" id="bB"/><path fill="#fff" d="M143 4C61 4 22-44 18-125c-5-107 100-154 193-111 17 8 29 25 37 43l-32 9c-13-25-37-40-76-40-61 0-88 39-88 99 0 61 29 100 91 101 35 0 62-11 79-27v-45h-74v-28h105v86C228-13 192 4 143 4" id="bC"/><g id="M"><use transform="matrix(0.056172839506172835,0,0,0.056172839506172835,0,0)" xlink:href="#bv"/><use transform="matrix(0.056172839506172835,0,0,0.056172839506172835,13.481481481481481,0)" xlink:href="#bw"/><use transform="matrix(0.056172839506172835,0,0,0.056172839506172835,28.030246913580243,0)" xlink:href="#bx"/><use transform="matrix(0.056172839506172835,0,0,0.056172839506172835,42.579012345679004,0)" xlink:href="#by"/><use transform="matrix(0.056172839506172835,0,0,0.056172839506172835,56.060493827160485,0)" xlink:href="#bz"/><use transform="matrix(0.056172839506172835,0,0,0.056172839506172835,69.54197530864197,0)" xlink:href="#bA"/><use transform="matrix(0.056172839506172835,0,0,0.056172839506172835,75.15925925925924,0)" xlink:href="#bB"/><use transform="matrix(0.056172839506172835,0,0,0.056172839506172835,89.708024691358,0)" xlink:href="#bC"/></g><path fill="#fff" d="M30 0v-248h187v28H63v79h144v27H63v87h162V0H30" id="bD"/><path fill="#fff" d="M232-93c-1 65-40 97-104 97C67 4 28-28 28-90v-158h33c8 89-33 224 67 224 102 0 64-133 71-224h33v155" id="bE"/><path fill="#fff" d="M30 0v-248h33v221h125V0H30" id="bF"/><path fill="#fff" d="M127-220V0H93v-220H8v-28h204v28h-85" id="bG"/><g id="N"><use transform="matrix(0.056172839506172835,0,0,0.056172839506172835,0,0)" xlink:href="#bx"/><use transform="matrix(0.056172839506172835,0,0,0.056172839506172835,14.548765432098763,0)" xlink:href="#bD"/><use transform="matrix(0.056172839506172835,0,0,0.056172839506172835,28.030246913580243,0)" xlink:href="#bv"/><use transform="matrix(0.056172839506172835,0,0,0.056172839506172835,41.51172839506172,0)" xlink:href="#bE"/><use transform="matrix(0.056172839506172835,0,0,0.056172839506172835,56.060493827160485,0)" xlink:href="#bF"/><use transform="matrix(0.056172839506172835,0,0,0.056172839506172835,65.77839506172839,0)" xlink:href="#bG"/></g><use transform="matrix(0.056172839506172835,0,0,0.056172839506172835,0,0)" xlink:href="#bs" id="O"/><path fill="#fff" d="M137 0h-34L2-248h35l83 218 83-218h36" id="bH"/><g id="P"><use transform="matrix(0.056172839506172835,0,0,0.056172839506172835,0,0)" xlink:href="#bF"/><use transform="matrix(0.056172839506172835,0,0,0.056172839506172835,11.234567901234566,0)" xlink:href="#by"/><use transform="matrix(0.056172839506172835,0,0,0.056172839506172835,24.716049382716047,0)" xlink:href="#bx"/><use transform="matrix(0.056172839506172835,0,0,0.056172839506172835,39.26481481481481,0)" xlink:href="#by"/><use transform="matrix(0.056172839506172835,0,0,0.056172839506172835,51.22962962962963,0)" xlink:href="#bH"/><use transform="matrix(0.056172839506172835,0,0,0.056172839506172835,64.71111111111111,0)" xlink:href="#bD"/><use transform="matrix(0.056172839506172835,0,0,0.056172839506172835,78.19259259259259,0)" xlink:href="#bF"/></g><g id="Q"><use transform="matrix(0.056172839506172835,0,0,0.056172839506172835,0,0)" xlink:href="#by"/><use transform="matrix(0.056172839506172835,0,0,0.056172839506172835,13.481481481481481,0)" xlink:href="#bz"/><use transform="matrix(0.056172839506172835,0,0,0.056172839506172835,26.962962962962962,0)" xlink:href="#bA"/></g><path fill="#fff" d="M24-248c93 1 206-16 204 79-1 75-69 88-152 82V0H24v-248zm52 121c47 0 100 7 100-41 0-47-54-39-100-39v80" id="bI"/><path fill="#fff" d="M146-102V0H94v-102L6-248h54l60 105 60-105h54" id="bJ"/><path fill="#fff" d="M186 0v-106H76V0H24v-248h52v99h110v-99h50V0h-50" id="bK"/><path fill="#fff" d="M140-251c80 0 125 45 125 126S219 4 139 4C58 4 15-44 15-125s44-126 125-126zm-1 214c52 0 73-35 73-88 0-50-21-86-72-86-52 0-73 35-73 86s22 88 72 88" id="bL"/><path fill="#fff" d="M175 0L67-191c6 58 2 128 3 191H24v-248h59L193-55c-6-58-2-129-3-193h46V0h-61" id="bM"/><g id="R"><use transform="matrix(0.056172839506172835,0,0,0.056172839506172835,0,0)" xlink:href="#bI"/><use transform="matrix(0.056172839506172835,0,0,0.056172839506172835,13.481481481481481,0)" xlink:href="#bJ"/><use transform="matrix(0.056172839506172835,0,0,0.056172839506172835,26.962962962962962,0)" xlink:href="#br"/><use transform="matrix(0.056172839506172835,0,0,0.056172839506172835,39.26481481481481,0)" xlink:href="#bK"/><use transform="matrix(0.056172839506172835,0,0,0.056172839506172835,53.813580246913574,0)" xlink:href="#bL"/><use transform="matrix(0.056172839506172835,0,0,0.056172839506172835,69.54197530864197,0)" xlink:href="#bM"/></g><path fill="#fff" d="M67-125c0 53 21 87 73 88 37 1 54-22 65-47l45 17C233-25 199 4 140 4 58 4 20-42 15-125 8-235 124-281 211-232c18 10 29 29 36 50l-46 12c-8-25-30-41-62-41-52 0-71 34-72 86" id="bN"/><path fill="#fff" d="M240-174c0 40-23 61-54 70L253 0h-59l-57-94H76V0H24v-248c93 4 217-23 216 74zM76-134c48-2 112 12 112-38 0-48-66-32-112-35v73" id="bO"/><path fill="#fff" d="M24 0v-248h52V0H24" id="bP"/><g id="S"><use transform="matrix(0.056172839506172835,0,0,0.056172839506172835,0,0)" xlink:href="#bt"/><use transform="matrix(0.056172839506172835,0,0,0.056172839506172835,13.481481481481481,0)" xlink:href="#bN"/><use transform="matrix(0.056172839506172835,0,0,0.056172839506172835,28.030246913580243,0)" xlink:href="#bO"/><use transform="matrix(0.056172839506172835,0,0,0.056172839506172835,42.579012345679004,0)" xlink:href="#bP"/><use transform="matrix(0.056172839506172835,0,0,0.056172839506172835,48.19629629629629,0)" xlink:href="#bI"/><use transform="matrix(0.056172839506172835,0,0,0.056172839506172835,61.67777777777777,0)" xlink:href="#br"/></g><g id="T"><use transform="matrix(0.056172839506172835,0,0,0.056172839506172835,0,0)" xlink:href="#bv"/><use transform="matrix(0.056172839506172835,0,0,0.056172839506172835,13.481481481481481,0)" xlink:href="#bw"/><use transform="matrix(0.056172839506172835,0,0,0.056172839506172835,28.030246913580243,0)" xlink:href="#bx"/><use transform="matrix(0.056172839506172835,0,0,0.056172839506172835,42.579012345679004,0)" xlink:href="#by"/><use transform="matrix(0.056172839506172835,0,0,0.056172839506172835,56.060493827160485,0)" xlink:href="#bz"/></g><g id="U"><use transform="matrix(0.056172839506172835,0,0,0.056172839506172835,0,0)" xlink:href="#bA"/><use transform="matrix(0.056172839506172835,0,0,0.056172839506172835,5.617283950617283,0)" xlink:href="#bB"/><use transform="matrix(0.056172839506172835,0,0,0.056172839506172835,20.166049382716047,0)" xlink:href="#bG"/><use transform="matrix(0.056172839506172835,0,0,0.056172839506172835,32.4679012345679,0)" xlink:href="#bD"/><use transform="matrix(0.056172839506172835,0,0,0.056172839506172835,45.94938271604938,0)" xlink:href="#bF"/></g><path fill="#fff" d="M266 0h-40l-56-210L115 0H75L2-248h35L96-30l15-64 43-154h32l59 218 59-218h35" id="bQ"/><path fill="#fff" d="M160-131c35 5 61 23 61 61C221 17 115-2 30 0v-248c76 3 177-17 177 60 0 33-19 50-47 57zm-97-11c50-1 110 9 110-42 0-47-63-36-110-37v79zm0 115c55-2 124 14 124-45 0-56-70-42-124-44v89" id="bR"/><g id="V"><use transform="matrix(0.056172839506172835,0,0,0.056172839506172835,0,0)" xlink:href="#bQ"/><use transform="matrix(0.056172839506172835,0,0,0.056172839506172835,19.04259259259259,0)" xlink:href="#bD"/><use transform="matrix(0.056172839506172835,0,0,0.056172839506172835,32.52407407407407,0)" xlink:href="#bR"/><use transform="matrix(0.056172839506172835,0,0,0.056172839506172835,46.00555555555555,0)" xlink:href="#bv"/><use transform="matrix(0.056172839506172835,0,0,0.056172839506172835,59.487037037037034,0)" xlink:href="#bA"/><use transform="matrix(0.056172839506172835,0,0,0.056172839506172835,65.10432098765432,0)" xlink:href="#bG"/><use transform="matrix(0.056172839506172835,0,0,0.056172839506172835,77.40617283950617,0)" xlink:href="#bD"/></g><path fill="#fff" d="M24 0v-248h52v208h133V0H24" id="bS"/><path fill="#fff" d="M147 0H94L2-248h55l64 206c17-72 42-137 63-206h54" id="bT"/><g id="W"><use transform="matrix(0.056172839506172835,0,0,0.056172839506172835,0,0)" xlink:href="#bS"/><use transform="matrix(0.056172839506172835,0,0,0.056172839506172835,12.30185185185185,0)" xlink:href="#bq"/><use transform="matrix(0.056172839506172835,0,0,0.056172839506172835,26.850617283950612,0)" xlink:href="#bO"/><use transform="matrix(0.056172839506172835,0,0,0.056172839506172835,41.399382716049374,0)" xlink:href="#bq"/><use transform="matrix(0.056172839506172835,0,0,0.056172839506172835,54.43148148148147,0)" xlink:href="#bT"/><use transform="matrix(0.056172839506172835,0,0,0.056172839506172835,67.91296296296295,0)" xlink:href="#bu"/><use transform="matrix(0.056172839506172835,0,0,0.056172839506172835,81.39444444444443,0)" xlink:href="#bS"/></g><path fill="#fff" d="M275 0h-61l-44-196L126 0H64L0-248h53L97-49l45-199h58l43 199 44-199h52" id="bU"/><path fill="#fff" d="M185-48c-13 30-37 53-82 52C43 2 14-33 14-96s30-98 90-98c62 0 83 45 84 108H66c0 31 8 55 39 56 18 0 30-7 34-22zm-45-69c5-46-57-63-70-21-2 6-4 13-4 21h74" id="bV"/><path fill="#fff" d="M135-194c52 0 70 43 70 98 0 56-19 99-73 100-30 1-46-15-58-35L72 0H24l1-261h50v104c11-23 29-37 60-37zM114-30c31 0 40-27 40-66 0-37-7-63-39-63s-41 28-41 65c0 36 8 64 40 64" id="bW"/><path fill="#fff" d="M137-138c1-29-70-34-71-4 15 46 118 7 119 86 1 83-164 76-172 9l43-7c4 19 20 25 44 25 33 8 57-30 24-41C81-84 22-81 20-136c-2-80 154-74 161-7" id="bX"/><path fill="#fff" d="M25-224v-37h50v37H25zM25 0v-190h50V0H25" id="bY"/><path fill="#fff" d="M115-3C79 11 28 4 28-45v-112H4v-33h27l15-45h31v45h36v33H77v99c-1 23 16 31 38 25v30" id="bZ"/><g id="X"><use transform="matrix(0.056172839506172835,0,0,0.056172839506172835,0,0)" xlink:href="#bU"/><use transform="matrix(0.056172839506172835,0,0,0.056172839506172835,18.64938271604938,0)" xlink:href="#bV"/><use transform="matrix(0.056172839506172835,0,0,0.056172839506172835,29.883950617283947,0)" xlink:href="#bW"/><use transform="matrix(0.056172839506172835,0,0,0.056172839506172835,42.185802469135794,0)" xlink:href="#bX"/><use transform="matrix(0.056172839506172835,0,0,0.056172839506172835,53.420370370370364,0)" xlink:href="#bY"/><use transform="matrix(0.056172839506172835,0,0,0.056172839506172835,59.03765432098765,0)" xlink:href="#bZ"/><use transform="matrix(0.056172839506172835,0,0,0.056172839506172835,65.72222222222221,0)" xlink:href="#bV"/></g><path fill="#fff" d="M24 0v-261h32V0H24" id="ca"/><g id="Z"><use transform="matrix(0.056172839506172835,0,0,0.056172839506172835,0,0)" xlink:href="#by"/><use transform="matrix(0.056172839506172835,0,0,0.056172839506172835,13.481481481481481,0)" xlink:href="#ca"/><use transform="matrix(0.056172839506172835,0,0,0.056172839506172835,17.919135802469135,0)" xlink:href="#ca"/></g><path fill="#fff" d="M84 4C-5 8 30-112 23-190h32v120c0 31 7 50 39 49 72-2 45-101 50-169h31l1 190h-30c-1-10 1-25-2-33-11 22-28 36-60 37" id="cb"/><path fill="#fff" d="M135-143c-3-34-86-38-87 0 15 53 115 12 119 90S17 21 10-45l28-5c4 36 97 45 98 0-10-56-113-15-118-90-4-57 82-63 122-42 12 7 21 19 24 35" id="cc"/><path fill="#fff" d="M100-194c63 0 86 42 84 106H49c0 40 14 67 53 68 26 1 43-12 49-29l28 8c-11 28-37 45-77 45C44 4 14-33 15-96c1-61 26-98 85-98zm52 81c6-60-76-77-97-28-3 7-6 17-6 28h103" id="cd"/><path fill="#fff" d="M114-163C36-179 61-72 57 0H25l-1-190h30c1 12-1 29 2 39 6-27 23-49 58-41v29" id="ce"/><g id="aa"><use transform="matrix(0.056172839506172835,0,0,0.056172839506172835,0,0)" xlink:href="#cb"/><use transform="matrix(0.056172839506172835,0,0,0.056172839506172835,11.234567901234566,0)" xlink:href="#cc"/><use transform="matrix(0.056172839506172835,0,0,0.056172839506172835,21.345679012345677,0)" xlink:href="#cd"/><use transform="matrix(0.056172839506172835,0,0,0.056172839506172835,32.58024691358024,0)" xlink:href="#ce"/><use transform="matrix(0.056172839506172835,0,0,0.056172839506172835,39.264814814814805,0)" xlink:href="#cc"/></g><path d="M30-248c118-7 216 8 213 122C240-48 200 0 122 0H30v-248zM63-27c89 8 146-16 146-99s-60-101-146-95v194" id="cf"/><path d="M179-190L93 31C79 59 56 82 12 73V49c39 6 53-20 64-50L1-190h34L92-34l54-156h33" id="cg"/><g id="ab"><use transform="matrix(0.056172839506172835,0,0,0.056172839506172835,0,0)" xlink:href="#cf"/><use transform="matrix(0.056172839506172835,0,0,0.056172839506172835,14.548765432098763,0)" xlink:href="#bd"/><use transform="matrix(0.056172839506172835,0,0,0.056172839506172835,18.986419753086416,0)" xlink:href="#aS"/><use transform="matrix(0.056172839506172835,0,0,0.056172839506172835,29.097530864197527,0)" xlink:href="#ba"/><use transform="matrix(0.056172839506172835,0,0,0.056172839506172835,40.33209876543209,0)" xlink:href="#bb"/><use transform="matrix(0.056172839506172835,0,0,0.056172839506172835,44.76975308641975,0)" xlink:href="#aU"/><use transform="matrix(0.056172839506172835,0,0,0.056172839506172835,56.00432098765431,0)" xlink:href="#cg"/></g><g id="ac"><use transform="matrix(0.056172839506172835,0,0,0.056172839506172835,0,0)" xlink:href="#aJ"/><use transform="matrix(0.056172839506172835,0,0,0.056172839506172835,5.617283950617283,0)" xlink:href="#aR"/><use transform="matrix(0.056172839506172835,0,0,0.056172839506172835,12.30185185185185,0)" xlink:href="#bf"/><use transform="matrix(0.056172839506172835,0,0,0.056172839506172835,23.536419753086417,0)" xlink:href="#aN"/><use transform="matrix(0.056172839506172835,0,0,0.056172839506172835,34.77098765432098,0)" xlink:href="#aK"/><use transform="matrix(0.056172839506172835,0,0,0.056172839506172835,40.38827160493827,0)" xlink:href="#aM"/><use transform="matrix(0.056172839506172835,0,0,0.056172839506172835,51.62283950617284,0)" xlink:href="#aN"/><use transform="matrix(0.056172839506172835,0,0,0.056172839506172835,62.8574074074074,0)" xlink:href="#aZ"/></g><g id="ad"><use transform="matrix(0.056172839506172835,0,0,0.056172839506172835,0,0)" xlink:href="#bh"/><use transform="matrix(0.056172839506172835,0,0,0.056172839506172835,10.11111111111111,0)" xlink:href="#bd"/><use transform="matrix(0.056172839506172835,0,0,0.056172839506172835,14.548765432098763,0)" xlink:href="#aU"/></g><path d="M137 0h-34L2-248h35l83 218 83-218h36" id="ch"/><path d="M33 0v-38h34V0H33" id="ci"/><path d="M24-231v-30h32v30H24zM-9 49c24 4 33-6 33-30v-209h32V24c2 40-23 58-65 49V49" id="cj"/><g id="ae"><use transform="matrix(0.056172839506172835,0,0,0.056172839506172835,0,0)" xlink:href="#ch"/><use transform="matrix(0.056172839506172835,0,0,0.056172839506172835,12.751234567901234,0)" xlink:href="#aO"/><use transform="matrix(0.056172839506172835,0,0,0.056172839506172835,23.9858024691358,0)" xlink:href="#aM"/><use transform="matrix(0.056172839506172835,0,0,0.056172839506172835,35.22037037037036,0)" xlink:href="#ci"/><use transform="matrix(0.056172839506172835,0,0,0.056172839506172835,40.837654320987646,0)" xlink:href="#cj"/><use transform="matrix(0.056172839506172835,0,0,0.056172839506172835,45.2753086419753,0)" xlink:href="#aS"/></g><g id="af"><use transform="matrix(0.056172839506172835,0,0,0.056172839506172835,0,0)" xlink:href="#bq"/><use transform="matrix(0.056172839506172835,0,0,0.056172839506172835,14.548765432098763,0)" xlink:href="#bI"/><use transform="matrix(0.056172839506172835,0,0,0.056172839506172835,28.030246913580243,0)" xlink:href="#bP"/></g><g id="ag"><use transform="matrix(0.056172839506172835,0,0,0.056172839506172835,0,0)" xlink:href="#cf"/><use transform="matrix(0.056172839506172835,0,0,0.056172839506172835,14.548765432098763,0)" xlink:href="#bd"/><use transform="matrix(0.056172839506172835,0,0,0.056172839506172835,18.986419753086416,0)" xlink:href="#aJ"/><use transform="matrix(0.056172839506172835,0,0,0.056172839506172835,24.21049382716049,0)" xlink:href="#aJ"/><use transform="matrix(0.056172839506172835,0,0,0.056172839506172835,29.827777777777776,0)" xlink:href="#aM"/><use transform="matrix(0.056172839506172835,0,0,0.056172839506172835,41.06234567901234,0)" xlink:href="#aR"/><use transform="matrix(0.056172839506172835,0,0,0.056172839506172835,47.746913580246904,0)" xlink:href="#aM"/><use transform="matrix(0.056172839506172835,0,0,0.056172839506172835,58.98148148148147,0)" xlink:href="#aN"/><use transform="matrix(0.056172839506172835,0,0,0.056172839506172835,70.21604938271604,0)" xlink:href="#aK"/></g><g id="ah"><use transform="matrix(0.056172839506172835,0,0,0.056172839506172835,0,0)" xlink:href="#aZ"/><use transform="matrix(0.056172839506172835,0,0,0.056172839506172835,11.234567901234566,0)" xlink:href="#aM"/><use transform="matrix(0.056172839506172835,0,0,0.056172839506172835,22.469135802469133,0)" xlink:href="#ba"/><use transform="matrix(0.056172839506172835,0,0,0.056172839506172835,33.703703703703695,0)" xlink:href="#aM"/><use transform="matrix(0.056172839506172835,0,0,0.056172839506172835,44.938271604938265,0)" xlink:href="#aN"/><use transform="matrix(0.056172839506172835,0,0,0.056172839506172835,56.172839506172835,0)" xlink:href="#aZ"/><use transform="matrix(0.056172839506172835,0,0,0.056172839506172835,67.4074074074074,0)" xlink:href="#bd"/><use transform="matrix(0.056172839506172835,0,0,0.056172839506172835,71.84506172839505,0)" xlink:href="#aN"/><use transform="matrix(0.056172839506172835,0,0,0.056172839506172835,83.07962962962962,0)" xlink:href="#aV"/></g><g id="ai"><use transform="matrix(0.056172839506172835,0,0,0.056172839506172835,0,0)" xlink:href="#bf"/><use transform="matrix(0.056172839506172835,0,0,0.056172839506172835,11.234567901234566,0)" xlink:href="#aN"/></g><g id="aj"><use transform="matrix(0.056172839506172835,0,0,0.056172839506172835,0,0)" xlink:href="#ba"/><use transform="matrix(0.056172839506172835,0,0,0.056172839506172835,11.234567901234566,0)" xlink:href="#aU"/><use transform="matrix(0.056172839506172835,0,0,0.056172839506172835,22.469135802469133,0)" xlink:href="#aT"/><use transform="matrix(0.056172839506172835,0,0,0.056172839506172835,32.58024691358024,0)" xlink:href="#be"/><use transform="matrix(0.056172839506172835,0,0,0.056172839506172835,42.691358024691354,0)" xlink:href="#aU"/><use transform="matrix(0.056172839506172835,0,0,0.056172839506172835,53.925925925925924,0)" xlink:href="#aV"/><use transform="matrix(0.056172839506172835,0,0,0.056172839506172835,65.1604938271605,0)" xlink:href="#aM"/></g><path d="M212-179c-10-28-35-45-73-45-59 0-87 40-87 99 0 60 29 101 89 101 43 0 62-24 78-52l27 14C228-24 195 4 139 4 59 4 22-46 18-125c-6-104 99-153 187-111 19 9 31 26 39 46" id="ck"/><g id="ak"><use transform="matrix(0.056172839506172835,0,0,0.056172839506172835,0,0)" xlink:href="#ck"/><use transform="matrix(0.056172839506172835,0,0,0.056172839506172835,14.548765432098763,0)" xlink:href="#bf"/><use transform="matrix(0.056172839506172835,0,0,0.056172839506172835,25.78333333333333,0)" xlink:href="#aN"/><use transform="matrix(0.056172839506172835,0,0,0.056172839506172835,37.0179012345679,0)" xlink:href="#aK"/><use transform="matrix(0.056172839506172835,0,0,0.056172839506172835,42.635185185185186,0)" xlink:href="#aU"/><use transform="matrix(0.056172839506172835,0,0,0.056172839506172835,53.86975308641975,0)" xlink:href="#bd"/><use transform="matrix(0.056172839506172835,0,0,0.056172839506172835,58.3074074074074,0)" xlink:href="#aN"/></g><g id="al"><use transform="matrix(0.056172839506172835,0,0,0.056172839506172835,0,0)" xlink:href="#aZ"/><use transform="matrix(0.056172839506172835,0,0,0.056172839506172835,11.234567901234566,0)" xlink:href="#aU"/><use transform="matrix(0.056172839506172835,0,0,0.056172839506172835,22.469135802469133,0)" xlink:href="#aK"/><use transform="matrix(0.056172839506172835,0,0,0.056172839506172835,28.086419753086417,0)" xlink:href="#aU"/></g><g id="am"><use transform="matrix(0.056172839506172835,0,0,0.056172839506172835,0,0)" xlink:href="#aJ"/><use transform="matrix(0.056172839506172835,0,0,0.056172839506172835,5.617283950617283,0)" xlink:href="#bf"/><use transform="matrix(0.056172839506172835,0,0,0.056172839506172835,16.851851851851848,0)" xlink:href="#aR"/></g><g id="an"><use transform="matrix(0.056172839506172835,0,0,0.056172839506172835,0,0)" xlink:href="#aO"/><use transform="matrix(0.056172839506172835,0,0,0.056172839506172835,11.234567901234566,0)" xlink:href="#aS"/><use transform="matrix(0.056172839506172835,0,0,0.056172839506172835,21.345679012345677,0)" xlink:href="#aM"/><use transform="matrix(0.056172839506172835,0,0,0.056172839506172835,32.58024691358024,0)" xlink:href="#aR"/><use transform="matrix(0.056172839506172835,0,0,0.056172839506172835,39.264814814814805,0)" xlink:href="#aS"/></g><g id="ao"><use transform="matrix(0.056172839506172835,0,0,0.056172839506172835,0,0)" xlink:href="#aS"/><use transform="matrix(0.056172839506172835,0,0,0.056172839506172835,10.11111111111111,0)" xlink:href="#aO"/><use transform="matrix(0.056172839506172835,0,0,0.056172839506172835,21.345679012345677,0)" xlink:href="#aQ"/><use transform="matrix(0.056172839506172835,0,0,0.056172839506172835,32.58024691358024,0)" xlink:href="#aS"/><use transform="matrix(0.056172839506172835,0,0,0.056172839506172835,42.691358024691354,0)" xlink:href="#aT"/><use transform="matrix(0.056172839506172835,0,0,0.056172839506172835,52.80246913580247,0)" xlink:href="#aR"/><use transform="matrix(0.056172839506172835,0,0,0.056172839506172835,59.487037037037034,0)" xlink:href="#bd"/><use transform="matrix(0.056172839506172835,0,0,0.056172839506172835,63.92469135802469,0)" xlink:href="#ba"/><use transform="matrix(0.056172839506172835,0,0,0.056172839506172835,75.15925925925926,0)" xlink:href="#aK"/><use transform="matrix(0.056172839506172835,0,0,0.056172839506172835,80.77654320987654,0)" xlink:href="#bd"/><use transform="matrix(0.056172839506172835,0,0,0.056172839506172835,85.21419753086418,0)" xlink:href="#bf"/><use transform="matrix(0.056172839506172835,0,0,0.056172839506172835,96.44876543209875,0)" xlink:href="#aN"/><use transform="matrix(0.056172839506172835,0,0,0.056172839506172835,107.68333333333332,0)" xlink:href="#aS"/></g></defs></g></svg>