<svg xmlns="http://www.w3.org/2000/svg" viewBox="0 0 561 135" width="561" height="135">
	<style>
		tspan { white-space:pre }
		.shp0 { fill: #0d1431 } 
	</style>
	<g id="Grey">
		<path id="SKR copy" class="shp0" d="M185.6 91.12C188.83 92.77 195.38 94.58 202.07 94.58C218.24 94.58 224.94 86.76 224.94 78.26C224.94 70.59 220.27 65.85 210.42 62.69C203.8 60.58 200.57 59.68 200.57 56.97C200.57 54.79 202.97 53.44 207.19 53.44C212.98 53.44 217.27 55.09 219.67 56.07L222.91 44.94C219 43.28 214.33 42.08 207.41 42.08C194.25 42.08 185.98 48.85 185.98 58.02C185.98 66.82 193.12 71.26 201.77 73.67C207.94 75.4 210.27 76.83 210.27 79.01C210.27 81.57 207.86 83.07 203.12 83.07C197.33 83.07 191.92 81.19 188.53 79.54L185.6 91.12ZM235.17 93.68L249.23 93.68L249.23 78.41L253.97 72.77L266.16 93.68L282.93 93.68L264.28 64.34L282.1 42.98L264.13 42.98L252.99 59.08C251.79 60.73 250.51 62.46 249.38 64.27L249.23 64.27L249.23 42.98L235.17 42.98L235.17 93.68ZM290.08 93.68L304.14 93.68L304.14 74.8L306.7 74.8C311.44 74.8 313.47 76 315.05 82.09C316.78 88.64 318.13 92.17 318.96 93.68L333.4 93.68C332.42 91.72 330.69 84.28 328.96 79.09C327.54 74.87 325.66 71.56 322.27 70.13L322.27 69.83C325.81 68.71 331.3 64.42 331.3 57.65C331.3 52.53 329.27 48.85 326.03 46.52C322.12 43.73 316.48 42.53 307.98 42.53C300.31 42.53 294.06 43.06 290.08 43.66L290.08 93.68ZM304.14 53.21C304.9 53.06 306.4 52.91 309.56 52.91C314.37 52.91 317.23 54.87 317.23 58.7C317.23 62.54 313.92 64.79 308.36 64.79L304.14 64.79L304.14 53.21Z" />
		<path id="AP copy" class="shp0" d="M372.84 81.34L376.6 93.68L392.4 93.68L375.33 42.98L355.92 42.98L339.9 93.68L354.87 93.68L358.1 81.34L372.84 81.34ZM360.13 70.96L362.54 62.09C363.37 59.15 364.12 55.47 364.95 52.53L365.1 52.53C366 55.47 367.05 59.15 367.95 62.01L370.66 70.96L360.13 70.96ZM401.58 93.68L415.64 93.68L415.64 76.75C416.55 76.83 417.9 76.98 419.48 76.98C427.3 76.98 433.47 75.25 437.83 71.41C441.14 68.55 442.8 63.97 442.8 59.08C442.8 53.59 440.16 49.07 436.63 46.59C433.09 44.03 427.75 42.53 420.16 42.53C411.21 42.53 405.49 43.06 401.58 43.66L401.58 93.68ZM415.64 53.36C416.4 53.21 417.9 53.06 420.31 53.06C425.95 53.06 428.73 55.47 428.73 59.15C428.73 63.74 424.82 66.22 419.33 66.22C417.52 66.22 416.47 66.15 415.64 66L415.64 53.36Z" />
		<path id="- copy" class="shp0" d="M451.95 70.21L451.95 79.24L474.06 79.24L474.06 70.21L451.95 70.21Z" />
		<path id="I copy" class="shp0" d="M483.98 42.98L483.98 93.68L498.2 93.68L498.2 42.98L483.98 42.98Z" />
		<path id="T copy" class="shp0" d="M519.94 93.68L534.15 93.68L534.15 54.56L548.74 54.56L548.74 42.98L505.64 42.98L505.64 54.56L519.94 54.56L519.94 93.68Z" />
		<g id="CPU copy">
			<path id="Rectangle 29 copy" class="shp0" d="M25.62 24.91L32.16 24.91L32.16 111.56L25.62 111.56L25.62 24.91Z" />
			<path id="Rectangle 30 copy" class="shp0" d="M25.62 104.78L112.28 104.78L112.28 111.56L25.62 111.56L25.62 104.78Z" />
			<path id="Rectangle 31 copy" class="shp0" d="M9.59 41.37L25.84 41.37L25.84 47.91L9.59 47.91L9.59 41.37Z" />
			<path id="Rectangle 32 copy" class="shp0" d="M16.12 65.06L25.84 65.06L25.84 71.84L16.12 71.84L16.12 65.06Z" />
			<path id="Rectangle 33 copy" class="shp0" d="M9.59 88.78L25.84 88.78L25.84 95.53L9.59 95.53L9.59 88.78Z" />
			<path id="Rectangle 34 copy" class="shp0" d="M41.66 111.34L48.19 111.34L48.19 127.59L41.66 127.59L41.66 111.34Z" />
			<path id="Rectangle 35 copy" class="shp0" d="M65.56 111.56L72.34 111.56L72.34 121.28L65.56 121.28L65.56 111.56Z" />
			<path id="Rectangle 36 copy" class="shp0" d="M89.5 111.56L96.25 111.56L96.25 127.81L89.5 127.81L89.5 111.56Z" />
			<path id="Rectangle 37 copy" class="shp0" d="M25.62 24.91L54.72 24.91L54.72 31.44L25.62 31.44L25.62 24.91Z" />
			<path id="Rectangle 38 copy" class="shp0" d="M47.97 8.87L54.72 8.87L54.72 31.44L47.97 31.44L47.97 8.87Z" />
			<path id="Rectangle 39 copy" class="shp0" d="M64.22 15.41L70.97 15.41L70.97 31.44L64.22 31.44L64.22 15.41Z" />
			<path id="Rectangle 40 copy" class="shp0" d="M64.16 24.91L112.28 24.91L112.28 31.44L64.16 31.44L64.16 24.91Z" />
			<path id="Rectangle 41 copy" class="shp0" d="M105.53 31.22L112.28 31.22L112.28 95.53L105.53 95.53L105.53 31.22Z" />
			<path id="Rectangle 42 copy" class="shp0" d="M112.06 41.37L128.31 41.37L128.31 47.91L112.06 47.91L112.06 41.37Z" />
			<path id="Rectangle 43 copy" class="shp0" d="M112.06 65.06L121.78 65.06L121.78 71.84L112.06 71.84L112.06 65.06Z" />
			<path id="Rectangle 44 copy" class="shp0" d="M112.06 88.78L128.31 88.78L128.31 95.53L112.06 95.53L112.06 88.78Z" />
			<path id="Rectangle 45 copy" class="shp0" d="M82.94 8.87L89.72 8.87L89.72 31.44L82.94 31.44L82.94 8.87Z" />
			<path id="Rectangle 28 copie 3 copy" class="shp0" d="M89.66 40.91L96.22 40.91L96.22 95.53L89.66 95.53L89.66 40.91Z" />
			<path id="Rectangle 28 copy" class="shp0" d="M41.66 40.91L96.25 40.91L96.25 47.47L41.66 47.47L41.66 40.91Z" />
			<path id="Forme 1 1 copy" class="shp0" d="M41.61 41L48.14 47.38L48.14 95.55L41.61 95.55L41.61 41Z" />
			<path id="Forme 1 1 copie copy" class="shp0" d="M96.17 95.54L89.79 89.01L41.61 89.01L41.61 95.54L96.17 95.54Z" />
		</g>
	</g>
</svg>