<svg id="Colors" xmlns="http://www.w3.org/2000/svg" width="561" height="135" viewBox="0 0 561 135">
  <defs>
    <style>
      .cls-1 {
        fill: #0d1431;
      }

      .cls-1, .cls-2, .cls-3 {
        fill-rule: evenodd;
      }

      .cls-2 {
        fill: #ff4757;
      }

      .cls-3 {
        fill: #fff;
      }
    </style>
  </defs>
  <path id="SKR" class="cls-1" d="M185.6,91.12c3.234,1.655,9.778,3.46,16.472,3.46,16.172,0,22.866-7.822,22.866-16.322,0-7.672-4.663-12.411-14.516-15.57-6.62-2.106-9.854-3.009-9.854-5.717,0-2.181,2.407-3.535,6.619-3.535a32.029,32.029,0,0,1,12.486,2.633l3.234-11.132a37.887,37.887,0,0,0-15.494-2.858c-13.163,0-21.437,6.77-21.437,15.946,0,8.8,7.146,13.238,15.8,15.645,6.167,1.73,8.5,3.159,8.5,5.34,0,2.557-2.407,4.062-7.145,4.062a34.633,34.633,0,0,1-14.592-3.535Zm49.569,2.557h14.065V78.408l4.739-5.641,12.185,20.91H282.93L264.277,64.343,282.1,42.981H264.126l-11.132,16.1c-1.2,1.655-2.482,3.385-3.61,5.19h-0.151V42.981H235.168v50.7Zm54.91,0h14.065V74.8H306.7c4.738,0,6.769,1.2,8.349,7.3,1.73,6.544,3.084,10.079,3.911,11.583H333.4c-0.977-1.956-2.707-9.4-4.437-14.592-1.429-4.212-3.31-7.522-6.694-8.951v-0.3c3.535-1.128,9.025-5.416,9.025-12.185,0-5.115-2.03-8.8-5.265-11.132-3.911-2.783-9.552-3.986-18.052-3.986a126.016,126.016,0,0,0-17.9,1.128V93.677Zm14.065-40.466a30.857,30.857,0,0,1,5.416-.3c4.814,0,7.672,1.956,7.672,5.792s-3.31,6.092-8.876,6.092h-4.212V53.211Z"/>
  <path id="AP" class="cls-2" d="M372.844,81.342l3.761,12.335H392.4l-17.074-50.7H355.92L339.9,93.677h14.968L358.1,81.342h14.743Zm-12.712-10.38,2.407-8.875c0.828-2.933,1.58-6.619,2.407-9.552H365.1c0.9,2.933,1.955,6.619,2.858,9.477l2.708,8.951H360.132Zm41.446,22.715h14.065V76.753c0.9,0.075,2.257.226,3.836,0.226,7.823,0,13.991-1.73,18.353-5.566,3.31-2.858,4.964-7.446,4.964-12.335a15.156,15.156,0,0,0-6.167-12.486c-3.535-2.557-8.876-4.062-16.473-4.062a122.471,122.471,0,0,0-18.578,1.128V93.677Zm14.065-40.316a26.46,26.46,0,0,1,4.664-.3c5.641,0,8.424,2.407,8.424,6.093,0,4.588-3.911,7.07-9.4,7.07A20.876,20.876,0,0,1,415.643,66V53.361Z"/>
  <path id="_-" data-name="-" class="cls-1" d="M451.951,70.21v9.026h22.113V70.21H451.951Z"/>
  <path id="I" class="cls-2" d="M483.981,42.981v50.7H498.2v-50.7H483.981Z"/>
  <path id="T" class="cls-1" d="M519.936,93.677h14.216V54.565h14.592V42.981h-43.1V54.565h14.291V93.677Z"/>
  <g id="CPU">
    <path class="cls-3" d="M48.144,47.352H89.728V89.008H48.144V47.352Z"/>
    <path class="cls-2" d="M25.615,24.894h6.546v86.672H25.615V24.894Z"/>
    <path class="cls-2" d="M25.615,104.8h86.671v6.77H25.615V104.8Z"/>
    <path class="cls-2" d="M9.589,41.371H25.843v6.546H9.589V41.371Z"/>
    <path class="cls-2" d="M16.135,65.073h9.708v6.769H16.135V65.073Z"/>
    <path class="cls-2" d="M9.589,88.77H25.843V95.54H9.589V88.77Z"/>
    <path class="cls-2" d="M41.641,111.343h6.546v16.249H41.641V111.343Z"/>
    <path class="cls-2" d="M65.566,111.566h6.769v9.707H65.566v-9.707Z"/>
    <path class="cls-2" d="M89.491,111.566H96.26v16.249H89.491V111.566Z"/>
    <path class="cls-2" d="M25.615,24.894H54.733V31.44H25.615V24.894Z"/>
    <path class="cls-2" d="M47.959,8.873h6.774V31.44H47.959V8.873Z"/>
    <path class="cls-1" d="M64.213,15.414h6.769V31.44H64.213V15.414Z"/>
    <path class="cls-1" d="M64.142,24.894h48.144V31.44H64.142V24.894Z"/>
    <path class="cls-1" d="M105.517,31.217h6.769V95.54h-6.769V31.217Z"/>
    <path class="cls-1" d="M112.059,41.371h16.253v6.546H112.059V41.371Z"/>
    <path class="cls-1" d="M112.059,65.073h9.707v6.769h-9.707V65.073Z"/>
    <path class="cls-1" d="M112.059,88.77h16.253V95.54H112.059V88.77Z"/>
    <path class="cls-1" d="M82.945,8.873h6.769V31.44H82.945V8.873Z"/>
    <path id="Rectangle_28_copie_3" data-name="Rectangle 28 copie 3" class="cls-1" d="M89.671,40.92h6.546V95.54H89.671V40.92Z"/>
    <path class="cls-1" d="M41.641,40.92H96.26v6.546H41.641V40.92Z"/>
    <path id="Forme_1_1" data-name="Forme 1 1" class="cls-2" d="M41.608,41l6.532,6.382V95.549H41.608V41Z"/>
    <path id="Forme_1_1_copie" data-name="Forme 1 1 copie" class="cls-2" d="M96.175,95.54l-6.384-6.532H41.608V95.54H96.175Z"/>
  </g>
</svg>
